%TF.GenerationSoftware,KiCad,Pcbnew,7.0.1*%
%TF.CreationDate,2023-06-27T14:48:06+02:00*%
%TF.ProjectId,micromirror-board-controller,6d696372-6f6d-4697-9272-6f722d626f61,rev?*%
%TF.SameCoordinates,Original*%
%TF.FileFunction,Soldermask,Bot*%
%TF.FilePolarity,Negative*%
%FSLAX46Y46*%
G04 Gerber Fmt 4.6, Leading zero omitted, Abs format (unit mm)*
G04 Created by KiCad (PCBNEW 7.0.1) date 2023-06-27 14:48:06*
%MOMM*%
%LPD*%
G01*
G04 APERTURE LIST*
G04 Aperture macros list*
%AMRoundRect*
0 Rectangle with rounded corners*
0 $1 Rounding radius*
0 $2 $3 $4 $5 $6 $7 $8 $9 X,Y pos of 4 corners*
0 Add a 4 corners polygon primitive as box body*
4,1,4,$2,$3,$4,$5,$6,$7,$8,$9,$2,$3,0*
0 Add four circle primitives for the rounded corners*
1,1,$1+$1,$2,$3*
1,1,$1+$1,$4,$5*
1,1,$1+$1,$6,$7*
1,1,$1+$1,$8,$9*
0 Add four rect primitives between the rounded corners*
20,1,$1+$1,$2,$3,$4,$5,0*
20,1,$1+$1,$4,$5,$6,$7,0*
20,1,$1+$1,$6,$7,$8,$9,0*
20,1,$1+$1,$8,$9,$2,$3,0*%
G04 Aperture macros list end*
%ADD10R,4.600000X2.000000*%
%ADD11O,4.200000X2.000000*%
%ADD12O,2.000000X4.200000*%
%ADD13R,1.700000X1.700000*%
%ADD14O,1.700000X1.700000*%
%ADD15C,2.100000*%
%ADD16C,1.750000*%
%ADD17C,0.650000*%
%ADD18O,2.100000X1.000000*%
%ADD19O,1.600000X1.000000*%
%ADD20RoundRect,0.500000X0.500000X-1.000000X0.500000X1.000000X-0.500000X1.000000X-0.500000X-1.000000X0*%
G04 APERTURE END LIST*
D10*
%TO.C,J1*%
X154100000Y-123150000D03*
D11*
X154100000Y-129450000D03*
D12*
X158900000Y-126050000D03*
%TD*%
D13*
%TO.C,J5*%
X143035000Y-131605000D03*
D14*
X143035000Y-129065000D03*
%TD*%
D15*
%TO.C,SW1*%
X183797500Y-70475000D03*
X183797500Y-77485000D03*
D16*
X186287500Y-71725000D03*
X186287500Y-76225000D03*
%TD*%
D15*
%TO.C,SW2*%
X183760000Y-60750000D03*
X183760000Y-67760000D03*
D16*
X186250000Y-62000000D03*
X186250000Y-66500000D03*
%TD*%
D14*
%TO.C,U1*%
X146640000Y-117880000D03*
X146640000Y-115340000D03*
D13*
X146640000Y-112800000D03*
D14*
X146640000Y-107720000D03*
X146640000Y-105180000D03*
X146640000Y-102640000D03*
D13*
X146640000Y-100100000D03*
D14*
X146640000Y-97560000D03*
X146640000Y-95020000D03*
X146640000Y-92480000D03*
X146640000Y-89940000D03*
D13*
X146640000Y-87400000D03*
D14*
X146640000Y-84860000D03*
X146640000Y-82320000D03*
X146640000Y-79780000D03*
X146640000Y-77240000D03*
D13*
X146640000Y-74700000D03*
D14*
X146640000Y-72160000D03*
X146640000Y-69620000D03*
X128860000Y-69620000D03*
X128860000Y-72160000D03*
D13*
X128860000Y-74700000D03*
D14*
X128860000Y-77240000D03*
X128860000Y-79780000D03*
X128860000Y-82320000D03*
X128860000Y-84860000D03*
D13*
X128860000Y-87400000D03*
D14*
X128860000Y-89940000D03*
X128860000Y-92480000D03*
X128860000Y-95020000D03*
X128860000Y-97560000D03*
D13*
X128860000Y-100100000D03*
D14*
X128860000Y-102640000D03*
X128860000Y-105180000D03*
X128860000Y-107720000D03*
X128860000Y-110260000D03*
D13*
X128860000Y-112800000D03*
D14*
X128860000Y-115340000D03*
X128860000Y-117880000D03*
%TD*%
D17*
%TO.C,J6*%
X182800000Y-106090000D03*
X182800000Y-100310000D03*
D18*
X182270000Y-107520000D03*
D19*
X186450000Y-107520000D03*
D18*
X182270000Y-98880000D03*
D19*
X186450000Y-98880000D03*
%TD*%
D20*
%TO.C,U3*%
X140420000Y-122815000D03*
X137670000Y-122815000D03*
X134920000Y-122815000D03*
%TD*%
M02*
