%TF.GenerationSoftware,KiCad,Pcbnew,7.0.1*%
%TF.CreationDate,2023-06-27T14:48:06+02:00*%
%TF.ProjectId,micromirror-board-controller,6d696372-6f6d-4697-9272-6f722d626f61,rev?*%
%TF.SameCoordinates,Original*%
%TF.FileFunction,Soldermask,Top*%
%TF.FilePolarity,Negative*%
%FSLAX46Y46*%
G04 Gerber Fmt 4.6, Leading zero omitted, Abs format (unit mm)*
G04 Created by KiCad (PCBNEW 7.0.1) date 2023-06-27 14:48:06*
%MOMM*%
%LPD*%
G01*
G04 APERTURE LIST*
G04 Aperture macros list*
%AMRoundRect*
0 Rectangle with rounded corners*
0 $1 Rounding radius*
0 $2 $3 $4 $5 $6 $7 $8 $9 X,Y pos of 4 corners*
0 Add a 4 corners polygon primitive as box body*
4,1,4,$2,$3,$4,$5,$6,$7,$8,$9,$2,$3,0*
0 Add four circle primitives for the rounded corners*
1,1,$1+$1,$2,$3*
1,1,$1+$1,$4,$5*
1,1,$1+$1,$6,$7*
1,1,$1+$1,$8,$9*
0 Add four rect primitives between the rounded corners*
20,1,$1+$1,$2,$3,$4,$5,0*
20,1,$1+$1,$4,$5,$6,$7,0*
20,1,$1+$1,$6,$7,$8,$9,0*
20,1,$1+$1,$8,$9,$2,$3,0*%
%AMRotRect*
0 Rectangle, with rotation*
0 The origin of the aperture is its center*
0 $1 length*
0 $2 width*
0 $3 Rotation angle, in degrees counterclockwise*
0 Add horizontal line*
21,1,$1,$2,0,0,$3*%
%AMFreePoly0*
4,1,19,0.500000,-0.750000,0.000000,-0.750000,0.000000,-0.744911,-0.071157,-0.744911,-0.207707,-0.704816,-0.327430,-0.627875,-0.420627,-0.520320,-0.479746,-0.390866,-0.500000,-0.250000,-0.500000,0.250000,-0.479746,0.390866,-0.420627,0.520320,-0.327430,0.627875,-0.207708,0.704817,-0.071157,0.744911,0.000000,0.744911,0.000000,0.750000,0.500000,0.750000,0.500000,-0.750000,0.500000,-0.750000,
$1*%
%AMFreePoly1*
4,1,19,0.000000,0.744911,0.071157,0.744911,0.207707,0.704816,0.327430,0.627875,0.420627,0.520320,0.479746,0.390866,0.500000,0.250000,0.500000,-0.250000,0.479746,-0.390866,0.420627,-0.520320,0.327430,-0.627875,0.207708,-0.704817,0.071157,-0.744911,0.000000,-0.744911,0.000000,-0.750000,-0.500000,-0.750000,-0.500000,0.750000,0.000000,0.750000,0.000000,0.744911,0.000000,0.744911,
$1*%
G04 Aperture macros list end*
%ADD10RoundRect,0.250000X-0.250000X-0.250000X0.250000X-0.250000X0.250000X0.250000X-0.250000X0.250000X0*%
%ADD11FreePoly0,60.000000*%
%ADD12FreePoly1,60.000000*%
%ADD13RoundRect,0.250000X0.242612X-0.529784X0.580112X0.054784X-0.242612X0.529784X-0.580112X-0.054784X0*%
%ADD14RoundRect,0.250000X-0.312500X-0.625000X0.312500X-0.625000X0.312500X0.625000X-0.312500X0.625000X0*%
%ADD15R,0.260000X0.800000*%
%ADD16R,0.300000X0.650000*%
%ADD17R,0.400000X0.850000*%
%ADD18RoundRect,0.243750X-0.456250X0.243750X-0.456250X-0.243750X0.456250X-0.243750X0.456250X0.243750X0*%
%ADD19R,4.600000X2.000000*%
%ADD20O,4.200000X2.000000*%
%ADD21O,2.000000X4.200000*%
%ADD22RoundRect,0.250000X-0.250000X-2.500000X0.250000X-2.500000X0.250000X2.500000X-0.250000X2.500000X0*%
%ADD23RoundRect,0.250000X-0.550000X-1.250000X0.550000X-1.250000X0.550000X1.250000X-0.550000X1.250000X0*%
%ADD24RoundRect,0.250000X0.337500X0.475000X-0.337500X0.475000X-0.337500X-0.475000X0.337500X-0.475000X0*%
%ADD25R,1.700000X1.700000*%
%ADD26O,1.700000X1.700000*%
%ADD27RoundRect,0.243750X0.456250X-0.243750X0.456250X0.243750X-0.456250X0.243750X-0.456250X-0.243750X0*%
%ADD28RoundRect,0.250000X0.312500X0.625000X-0.312500X0.625000X-0.312500X-0.625000X0.312500X-0.625000X0*%
%ADD29C,2.100000*%
%ADD30C,1.750000*%
%ADD31R,1.000000X1.000000*%
%ADD32R,3.500000X1.700000*%
%ADD33RoundRect,0.250000X-1.500000X-0.550000X1.500000X-0.550000X1.500000X0.550000X-1.500000X0.550000X0*%
%ADD34RotRect,2.200000X1.200000X240.000000*%
%ADD35RotRect,6.400000X5.800000X240.000000*%
%ADD36C,0.650000*%
%ADD37R,1.450000X0.600000*%
%ADD38R,1.450000X0.300000*%
%ADD39O,2.100000X1.000000*%
%ADD40O,1.600000X1.000000*%
G04 APERTURE END LIST*
D10*
%TO.C,D1*%
X163000000Y-93500000D03*
X165500000Y-93500000D03*
%TD*%
D11*
%TO.C,JP1*%
X170746811Y-92582356D03*
D12*
X171396811Y-91456522D03*
%TD*%
D13*
%TO.C,C3*%
X172405474Y-89743614D03*
X173442974Y-87946612D03*
%TD*%
D14*
%TO.C,R2*%
X150675000Y-96000000D03*
X153600000Y-96000000D03*
%TD*%
D15*
%TO.C,J4*%
X143500000Y-60850000D03*
D16*
X143200000Y-63725000D03*
D15*
X142900000Y-60850000D03*
D16*
X142600000Y-63725000D03*
D15*
X142300000Y-60850000D03*
D16*
X142000000Y-63725000D03*
D15*
X141700000Y-60850000D03*
D16*
X141400000Y-63725000D03*
D15*
X141100000Y-60850000D03*
D16*
X140800000Y-63725000D03*
D15*
X140500000Y-60850000D03*
D16*
X140200000Y-63725000D03*
D15*
X139900000Y-60850000D03*
D16*
X139600000Y-63725000D03*
D15*
X139300000Y-60850000D03*
D16*
X139000000Y-63725000D03*
D15*
X138700000Y-60850000D03*
D16*
X138400000Y-63725000D03*
D15*
X138100000Y-60850000D03*
D16*
X137800000Y-63725000D03*
D15*
X137500000Y-60850000D03*
D16*
X137200000Y-63725000D03*
D15*
X136900000Y-60850000D03*
D16*
X136600000Y-63725000D03*
D15*
X136300000Y-60850000D03*
D16*
X136000000Y-63725000D03*
D15*
X135700000Y-60850000D03*
D16*
X135400000Y-63725000D03*
D15*
X135100000Y-60850000D03*
D16*
X134800000Y-63725000D03*
D15*
X134500000Y-60850000D03*
D16*
X134200000Y-63725000D03*
D15*
X133900000Y-60850000D03*
D16*
X133600000Y-63725000D03*
D15*
X133300000Y-60850000D03*
D16*
X133000000Y-63725000D03*
D15*
X132700000Y-60850000D03*
D16*
X132400000Y-63725000D03*
D15*
X132100000Y-60850000D03*
D16*
X131800000Y-63725000D03*
D15*
X131500000Y-60850000D03*
D16*
X131200000Y-63725000D03*
D15*
X130900000Y-60850000D03*
D16*
X130600000Y-63725000D03*
D15*
X130300000Y-60850000D03*
D16*
X130000000Y-63725000D03*
D15*
X129700000Y-60850000D03*
D16*
X129400000Y-63725000D03*
D15*
X129100000Y-60850000D03*
D16*
X128800000Y-63725000D03*
D15*
X128500000Y-60850000D03*
D17*
X144200000Y-61175000D03*
X127800000Y-61175000D03*
%TD*%
D18*
%TO.C,D4*%
X118000000Y-91262500D03*
X118000000Y-93137500D03*
%TD*%
D19*
%TO.C,J1*%
X154100000Y-123150000D03*
D20*
X154100000Y-129450000D03*
D21*
X158900000Y-126050000D03*
%TD*%
D22*
%TO.C,J2*%
X169800000Y-63500000D03*
X171800000Y-63500000D03*
X173800000Y-63500000D03*
X175800000Y-63500000D03*
D23*
X167400000Y-61250000D03*
X178200000Y-61250000D03*
%TD*%
D14*
%TO.C,R5*%
X174937500Y-106400000D03*
X177862500Y-106400000D03*
%TD*%
%TO.C,R6*%
X173737500Y-99400000D03*
X176662500Y-99400000D03*
%TD*%
D24*
%TO.C,C2*%
X167200000Y-77750000D03*
X165125000Y-77750000D03*
%TD*%
D25*
%TO.C,J5*%
X143035000Y-131605000D03*
D26*
X143035000Y-129065000D03*
%TD*%
D27*
%TO.C,D3*%
X118000000Y-88737500D03*
X118000000Y-86862500D03*
%TD*%
D28*
%TO.C,R4*%
X123062500Y-92600000D03*
X120137500Y-92600000D03*
%TD*%
%TO.C,R1*%
X153662500Y-99000000D03*
X150737500Y-99000000D03*
%TD*%
D29*
%TO.C,SW1*%
X183797500Y-70475000D03*
X183797500Y-77485000D03*
D30*
X186287500Y-71725000D03*
X186287500Y-76225000D03*
%TD*%
D31*
%TO.C,D2*%
X163000000Y-95750000D03*
X165500000Y-95750000D03*
%TD*%
D29*
%TO.C,SW2*%
X183760000Y-60750000D03*
X183760000Y-67760000D03*
D30*
X186250000Y-62000000D03*
X186250000Y-66500000D03*
%TD*%
D28*
%TO.C,R3*%
X123062500Y-87800000D03*
X120137500Y-87800000D03*
%TD*%
D22*
%TO.C,J3*%
X157000000Y-63700000D03*
X159000000Y-63700000D03*
X161000000Y-63700000D03*
D23*
X154600000Y-61450000D03*
X163400000Y-61450000D03*
%TD*%
D26*
%TO.C,U1*%
X146640000Y-117880000D03*
D32*
X147540000Y-117880000D03*
D26*
X146640000Y-115340000D03*
D32*
X147540000Y-115340000D03*
D25*
X146640000Y-112800000D03*
D32*
X147540000Y-112800000D03*
D26*
X146640000Y-107720000D03*
D32*
X147540000Y-107720000D03*
D26*
X146640000Y-105180000D03*
D32*
X147540000Y-105180000D03*
D26*
X146640000Y-102640000D03*
D32*
X147540000Y-102640000D03*
D25*
X146640000Y-100100000D03*
D32*
X147540000Y-100100000D03*
D26*
X146640000Y-97560000D03*
D32*
X147540000Y-97560000D03*
D26*
X146640000Y-95020000D03*
D32*
X147540000Y-95020000D03*
D26*
X146640000Y-92480000D03*
D32*
X147540000Y-92480000D03*
D26*
X146640000Y-89940000D03*
D32*
X147540000Y-89940000D03*
D25*
X146640000Y-87400000D03*
D32*
X147540000Y-87400000D03*
D26*
X146640000Y-84860000D03*
D32*
X147540000Y-84860000D03*
D26*
X146640000Y-82320000D03*
D32*
X147540000Y-82320000D03*
D26*
X146640000Y-79780000D03*
D32*
X147540000Y-79780000D03*
D26*
X146640000Y-77240000D03*
D32*
X147540000Y-77240000D03*
D25*
X146640000Y-74700000D03*
D32*
X147540000Y-74700000D03*
D26*
X146640000Y-72160000D03*
D32*
X147540000Y-72160000D03*
D26*
X146640000Y-69620000D03*
D32*
X147540000Y-69620000D03*
D26*
X128860000Y-69620000D03*
D32*
X127960000Y-69620000D03*
D26*
X128860000Y-72160000D03*
D32*
X127960000Y-72160000D03*
D25*
X128860000Y-74700000D03*
D32*
X127960000Y-74700000D03*
D26*
X128860000Y-77240000D03*
D32*
X127960000Y-77240000D03*
D26*
X128860000Y-79780000D03*
D32*
X127960000Y-79780000D03*
D26*
X128860000Y-82320000D03*
D32*
X127960000Y-82320000D03*
D26*
X128860000Y-84860000D03*
D32*
X127960000Y-84860000D03*
D25*
X128860000Y-87400000D03*
D32*
X127960000Y-87400000D03*
D26*
X128860000Y-89940000D03*
D32*
X127960000Y-89940000D03*
D26*
X128860000Y-92480000D03*
D32*
X127960000Y-92480000D03*
D26*
X128860000Y-95020000D03*
D32*
X127960000Y-95020000D03*
D26*
X128860000Y-97560000D03*
D32*
X127960000Y-97560000D03*
D25*
X128860000Y-100100000D03*
D32*
X127960000Y-100100000D03*
D26*
X128860000Y-102640000D03*
D32*
X127960000Y-102640000D03*
D26*
X128860000Y-105180000D03*
D32*
X127960000Y-105180000D03*
D26*
X128860000Y-107720000D03*
D32*
X127960000Y-107720000D03*
D26*
X128860000Y-110260000D03*
D32*
X127960000Y-110260000D03*
D25*
X128860000Y-112800000D03*
D32*
X127960000Y-112800000D03*
D26*
X128860000Y-115340000D03*
D32*
X127960000Y-115340000D03*
D26*
X128860000Y-117880000D03*
D32*
X127960000Y-117880000D03*
%TD*%
D33*
%TO.C,C1*%
X169200000Y-72200000D03*
X174600000Y-72200000D03*
%TD*%
D34*
%TO.C,U2*%
X172646349Y-84022132D03*
X170671811Y-82882132D03*
D35*
X167521811Y-88338092D03*
D34*
X168697273Y-81742132D03*
%TD*%
D36*
%TO.C,J6*%
X182800000Y-106090000D03*
X182800000Y-100310000D03*
D37*
X181355000Y-106450000D03*
X181355000Y-105650000D03*
D38*
X181355000Y-104450000D03*
X181355000Y-103450000D03*
X181355000Y-102950000D03*
X181355000Y-101950000D03*
D37*
X181355000Y-100750000D03*
X181355000Y-99950000D03*
X181355000Y-99950000D03*
X181355000Y-100750000D03*
D38*
X181355000Y-101450000D03*
X181355000Y-102450000D03*
X181355000Y-103950000D03*
X181355000Y-104950000D03*
D37*
X181355000Y-105650000D03*
X181355000Y-106450000D03*
D39*
X182270000Y-107520000D03*
D40*
X186450000Y-107520000D03*
D39*
X182270000Y-98880000D03*
D40*
X186450000Y-98880000D03*
%TD*%
M02*
