%TF.GenerationSoftware,KiCad,Pcbnew,7.0.1*%
%TF.CreationDate,2023-06-27T14:48:06+02:00*%
%TF.ProjectId,micromirror-board-controller,6d696372-6f6d-4697-9272-6f722d626f61,rev?*%
%TF.SameCoordinates,Original*%
%TF.FileFunction,Copper,L1,Top*%
%TF.FilePolarity,Positive*%
%FSLAX46Y46*%
G04 Gerber Fmt 4.6, Leading zero omitted, Abs format (unit mm)*
G04 Created by KiCad (PCBNEW 7.0.1) date 2023-06-27 14:48:06*
%MOMM*%
%LPD*%
G01*
G04 APERTURE LIST*
G04 Aperture macros list*
%AMRoundRect*
0 Rectangle with rounded corners*
0 $1 Rounding radius*
0 $2 $3 $4 $5 $6 $7 $8 $9 X,Y pos of 4 corners*
0 Add a 4 corners polygon primitive as box body*
4,1,4,$2,$3,$4,$5,$6,$7,$8,$9,$2,$3,0*
0 Add four circle primitives for the rounded corners*
1,1,$1+$1,$2,$3*
1,1,$1+$1,$4,$5*
1,1,$1+$1,$6,$7*
1,1,$1+$1,$8,$9*
0 Add four rect primitives between the rounded corners*
20,1,$1+$1,$2,$3,$4,$5,0*
20,1,$1+$1,$4,$5,$6,$7,0*
20,1,$1+$1,$6,$7,$8,$9,0*
20,1,$1+$1,$8,$9,$2,$3,0*%
%AMRotRect*
0 Rectangle, with rotation*
0 The origin of the aperture is its center*
0 $1 length*
0 $2 width*
0 $3 Rotation angle, in degrees counterclockwise*
0 Add horizontal line*
21,1,$1,$2,0,0,$3*%
%AMFreePoly0*
4,1,19,0.500000,-0.750000,0.000000,-0.750000,0.000000,-0.744911,-0.071157,-0.744911,-0.207707,-0.704816,-0.327430,-0.627875,-0.420627,-0.520320,-0.479746,-0.390866,-0.500000,-0.250000,-0.500000,0.250000,-0.479746,0.390866,-0.420627,0.520320,-0.327430,0.627875,-0.207708,0.704817,-0.071157,0.744911,0.000000,0.744911,0.000000,0.750000,0.500000,0.750000,0.500000,-0.750000,0.500000,-0.750000,
$1*%
%AMFreePoly1*
4,1,19,0.000000,0.744911,0.071157,0.744911,0.207707,0.704816,0.327430,0.627875,0.420627,0.520320,0.479746,0.390866,0.500000,0.250000,0.500000,-0.250000,0.479746,-0.390866,0.420627,-0.520320,0.327430,-0.627875,0.207708,-0.704817,0.071157,-0.744911,0.000000,-0.744911,0.000000,-0.750000,-0.500000,-0.750000,-0.500000,0.750000,0.000000,0.750000,0.000000,0.744911,0.000000,0.744911,
$1*%
G04 Aperture macros list end*
%TA.AperFunction,NonConductor*%
%ADD10C,0.100000*%
%TD*%
%TA.AperFunction,SMDPad,CuDef*%
%ADD11RoundRect,0.250000X-0.250000X-0.250000X0.250000X-0.250000X0.250000X0.250000X-0.250000X0.250000X0*%
%TD*%
%TA.AperFunction,SMDPad,CuDef*%
%ADD12FreePoly0,60.000000*%
%TD*%
%TA.AperFunction,SMDPad,CuDef*%
%ADD13FreePoly1,60.000000*%
%TD*%
%TA.AperFunction,SMDPad,CuDef*%
%ADD14RoundRect,0.250000X0.242612X-0.529784X0.580112X0.054784X-0.242612X0.529784X-0.580112X-0.054784X0*%
%TD*%
%TA.AperFunction,SMDPad,CuDef*%
%ADD15RoundRect,0.250000X-0.312500X-0.625000X0.312500X-0.625000X0.312500X0.625000X-0.312500X0.625000X0*%
%TD*%
%TA.AperFunction,SMDPad,CuDef*%
%ADD16R,0.260000X0.800000*%
%TD*%
%TA.AperFunction,SMDPad,CuDef*%
%ADD17R,0.300000X0.650000*%
%TD*%
%TA.AperFunction,SMDPad,CuDef*%
%ADD18R,0.400000X0.850000*%
%TD*%
%TA.AperFunction,SMDPad,CuDef*%
%ADD19RoundRect,0.243750X-0.456250X0.243750X-0.456250X-0.243750X0.456250X-0.243750X0.456250X0.243750X0*%
%TD*%
%TA.AperFunction,ComponentPad*%
%ADD20R,4.600000X2.000000*%
%TD*%
%TA.AperFunction,ComponentPad*%
%ADD21O,4.200000X2.000000*%
%TD*%
%TA.AperFunction,ComponentPad*%
%ADD22O,2.000000X4.200000*%
%TD*%
%TA.AperFunction,SMDPad,CuDef*%
%ADD23RoundRect,0.250000X-0.250000X-2.500000X0.250000X-2.500000X0.250000X2.500000X-0.250000X2.500000X0*%
%TD*%
%TA.AperFunction,SMDPad,CuDef*%
%ADD24RoundRect,0.250000X-0.550000X-1.250000X0.550000X-1.250000X0.550000X1.250000X-0.550000X1.250000X0*%
%TD*%
%TA.AperFunction,SMDPad,CuDef*%
%ADD25RoundRect,0.250000X0.337500X0.475000X-0.337500X0.475000X-0.337500X-0.475000X0.337500X-0.475000X0*%
%TD*%
%TA.AperFunction,ComponentPad*%
%ADD26R,1.700000X1.700000*%
%TD*%
%TA.AperFunction,ComponentPad*%
%ADD27O,1.700000X1.700000*%
%TD*%
%TA.AperFunction,SMDPad,CuDef*%
%ADD28RoundRect,0.243750X0.456250X-0.243750X0.456250X0.243750X-0.456250X0.243750X-0.456250X-0.243750X0*%
%TD*%
%TA.AperFunction,SMDPad,CuDef*%
%ADD29RoundRect,0.250000X0.312500X0.625000X-0.312500X0.625000X-0.312500X-0.625000X0.312500X-0.625000X0*%
%TD*%
%TA.AperFunction,ComponentPad*%
%ADD30C,2.100000*%
%TD*%
%TA.AperFunction,ComponentPad*%
%ADD31C,1.750000*%
%TD*%
%TA.AperFunction,SMDPad,CuDef*%
%ADD32R,1.000000X1.000000*%
%TD*%
%TA.AperFunction,SMDPad,CuDef*%
%ADD33R,3.500000X1.700000*%
%TD*%
%TA.AperFunction,SMDPad,CuDef*%
%ADD34RoundRect,0.250000X-1.500000X-0.550000X1.500000X-0.550000X1.500000X0.550000X-1.500000X0.550000X0*%
%TD*%
%TA.AperFunction,SMDPad,CuDef*%
%ADD35RotRect,2.200000X1.200000X240.000000*%
%TD*%
%TA.AperFunction,SMDPad,CuDef*%
%ADD36RotRect,6.400000X5.800000X240.000000*%
%TD*%
%TA.AperFunction,SMDPad,CuDef*%
%ADD37R,1.450000X0.600000*%
%TD*%
%TA.AperFunction,SMDPad,CuDef*%
%ADD38R,1.450000X0.300000*%
%TD*%
%TA.AperFunction,ComponentPad*%
%ADD39O,2.100000X1.000000*%
%TD*%
%TA.AperFunction,ComponentPad*%
%ADD40O,1.600000X1.000000*%
%TD*%
%TA.AperFunction,ViaPad*%
%ADD41C,0.800000*%
%TD*%
%TA.AperFunction,Conductor*%
%ADD42C,0.400000*%
%TD*%
%TA.AperFunction,Conductor*%
%ADD43C,0.250000*%
%TD*%
%TA.AperFunction,Conductor*%
%ADD44C,0.300000*%
%TD*%
%TA.AperFunction,Conductor*%
%ADD45C,0.600000*%
%TD*%
%TA.AperFunction,Conductor*%
%ADD46C,0.200000*%
%TD*%
G04 APERTURE END LIST*
D10*
X165042751Y-137411351D02*
G75*
G03*
X167542751Y-134911284I-51J2500051D01*
G01*
X125542716Y-97911284D02*
G75*
G03*
X123042751Y-95411284I-2499916J84D01*
G01*
X170042751Y-115411284D02*
X187042751Y-115411284D01*
X115542716Y-92911284D02*
G75*
G03*
X118042751Y-95411284I2500084J84D01*
G01*
X170042751Y-115411351D02*
G75*
G03*
X167542751Y-117911284I-51J-2499949D01*
G01*
X125542751Y-97911284D02*
X125542751Y-120911284D01*
X123042751Y-123411351D02*
G75*
G03*
X125542751Y-120911284I-51J2500051D01*
G01*
X118042751Y-137411284D02*
X165042751Y-137411284D01*
X187042751Y-57411284D02*
X118042751Y-57411284D01*
X189542716Y-59911284D02*
G75*
G03*
X187042751Y-57411284I-2499916J84D01*
G01*
X118042751Y-95411284D02*
X123042751Y-95411284D01*
X118042751Y-123411351D02*
G75*
G03*
X115542751Y-125911284I-51J-2499949D01*
G01*
X123042751Y-123411284D02*
X118042751Y-123411284D01*
X115542751Y-59911284D02*
X115542751Y-92911284D01*
X187042751Y-115411351D02*
G75*
G03*
X189542751Y-112911284I-51J2500051D01*
G01*
X189542751Y-112911284D02*
X189542751Y-59911284D01*
X118042751Y-57411351D02*
G75*
G03*
X115542751Y-59911284I-51J-2499949D01*
G01*
X115542751Y-125911284D02*
X115542751Y-134911284D01*
X167542751Y-134911284D02*
X167542751Y-117911284D01*
X115542716Y-134911284D02*
G75*
G03*
X118042751Y-137411284I2500084J84D01*
G01*
%TA.AperFunction,EtchedComponent*%
%TO.C,JP1*%
G36*
X171456619Y-91952933D02*
G01*
X171206619Y-92385945D01*
X170687003Y-92085945D01*
X170937003Y-91652933D01*
X171456619Y-91952933D01*
G37*
%TD.AperFunction*%
%TD*%
D11*
%TO.P,D1,1,K*%
%TO.N,/+5V VSYS*%
X163000000Y-93500000D03*
%TO.P,D1,2,A*%
%TO.N,/+5V*%
X165500000Y-93500000D03*
%TD*%
D12*
%TO.P,JP1,1,A*%
%TO.N,/+5V*%
X170746811Y-92582356D03*
D13*
%TO.P,JP1,2,B*%
X171396811Y-91456522D03*
%TD*%
D14*
%TO.P,C3,1*%
%TO.N,/+5V*%
X172405474Y-89743614D03*
%TO.P,C3,2*%
%TO.N,GND*%
X173442974Y-87946612D03*
%TD*%
D15*
%TO.P,R2,1*%
%TO.N,/SCL*%
X150675000Y-96000000D03*
%TO.P,R2,2*%
%TO.N,/+3.3V*%
X153600000Y-96000000D03*
%TD*%
D16*
%TO.P,J4,1,Pin_1*%
%TO.N,unconnected-(J4-Pin_1-Pad1)*%
X143500000Y-60850000D03*
D17*
%TO.P,J4,2,DATAEN*%
%TO.N,/DATAEN_CMD*%
X143200000Y-63725000D03*
D16*
%TO.P,J4,3,PCLK_ALT*%
%TO.N,unconnected-(J4-PCLK_ALT-Pad3)*%
X142900000Y-60850000D03*
D17*
%TO.P,J4,4,Vsync*%
%TO.N,/Vsync*%
X142600000Y-63725000D03*
D16*
%TO.P,J4,5,Hsync*%
%TO.N,/Hsync*%
X142300000Y-60850000D03*
D17*
%TO.P,J4,6,GND*%
%TO.N,GND*%
X142000000Y-63725000D03*
D16*
%TO.P,J4,7,P1*%
%TO.N,/P1*%
X141700000Y-60850000D03*
D17*
%TO.P,J4,8,P0*%
%TO.N,/P0*%
X141400000Y-63725000D03*
D16*
%TO.P,J4,9,P3*%
%TO.N,/P3*%
X141100000Y-60850000D03*
D17*
%TO.P,J4,10,P2*%
%TO.N,/P2*%
X140800000Y-63725000D03*
D16*
%TO.P,J4,11,P5*%
%TO.N,/P5*%
X140500000Y-60850000D03*
D17*
%TO.P,J4,12,P4*%
%TO.N,/P4*%
X140200000Y-63725000D03*
D16*
%TO.P,J4,13,P7*%
%TO.N,/P7*%
X139900000Y-60850000D03*
D17*
%TO.P,J4,14,P6*%
%TO.N,/P6*%
X139600000Y-63725000D03*
D16*
%TO.P,J4,15,GND*%
%TO.N,GND*%
X139300000Y-60850000D03*
D17*
%TO.P,J4,16,Pin_16*%
%TO.N,unconnected-(J4-Pin_16-Pad16)*%
X139000000Y-63725000D03*
D16*
%TO.P,J4,17,Pin_17*%
%TO.N,GND*%
X138700000Y-60850000D03*
D17*
%TO.P,J4,18,Pin_18*%
%TO.N,unconnected-(J4-Pin_18-Pad18)*%
X138400000Y-63725000D03*
D16*
%TO.P,J4,19,Pin_19*%
%TO.N,GND*%
X138100000Y-60850000D03*
D17*
%TO.P,J4,20,Pin_20*%
%TO.N,unconnected-(J4-Pin_20-Pad20)*%
X137800000Y-63725000D03*
D16*
%TO.P,J4,21,Pin_21*%
%TO.N,GND*%
X137500000Y-60850000D03*
D17*
%TO.P,J4,22,Pin_22*%
%TO.N,unconnected-(J4-Pin_22-Pad22)*%
X137200000Y-63725000D03*
D16*
%TO.P,J4,23,Pin_23*%
%TO.N,GND*%
X136900000Y-60850000D03*
D17*
%TO.P,J4,24,Pin_24*%
X136600000Y-63725000D03*
D16*
%TO.P,J4,25,Pin_25*%
X136300000Y-60850000D03*
D17*
%TO.P,J4,26,Pin_26*%
%TO.N,unconnected-(J4-Pin_26-Pad26)*%
X136000000Y-63725000D03*
D16*
%TO.P,J4,27,Pin_27*%
%TO.N,GND*%
X135700000Y-60850000D03*
D17*
%TO.P,J4,28,Pin_28*%
%TO.N,unconnected-(J4-Pin_28-Pad28)*%
X135400000Y-63725000D03*
D16*
%TO.P,J4,29,Pin_29*%
%TO.N,GND*%
X135100000Y-60850000D03*
D17*
%TO.P,J4,30,Pin_30*%
%TO.N,unconnected-(J4-Pin_30-Pad30)*%
X134800000Y-63725000D03*
D16*
%TO.P,J4,31,Pin_31*%
%TO.N,GND*%
X134500000Y-60850000D03*
D17*
%TO.P,J4,32,Pin_32*%
%TO.N,unconnected-(J4-Pin_32-Pad32)*%
X134200000Y-63725000D03*
D16*
%TO.P,J4,33,Pin_33*%
%TO.N,GND*%
X133900000Y-60850000D03*
D17*
%TO.P,J4,34,Pin_34*%
%TO.N,unconnected-(J4-Pin_34-Pad34)*%
X133600000Y-63725000D03*
D16*
%TO.P,J4,35,Pin_35*%
%TO.N,unconnected-(J4-Pin_35-Pad35)*%
X133300000Y-60850000D03*
D17*
%TO.P,J4,36,Pin_36*%
%TO.N,unconnected-(J4-Pin_36-Pad36)*%
X133000000Y-63725000D03*
D16*
%TO.P,J4,37,Pin_37*%
%TO.N,unconnected-(J4-Pin_37-Pad37)*%
X132700000Y-60850000D03*
D17*
%TO.P,J4,38,HOST_IRQ*%
%TO.N,/HOST_IRQ*%
X132400000Y-63725000D03*
D16*
%TO.P,J4,39,GPIO_9*%
%TO.N,/GPIO 9*%
X132100000Y-60850000D03*
D17*
%TO.P,J4,40,Pin_40*%
%TO.N,unconnected-(J4-Pin_40-Pad40)*%
X131800000Y-63725000D03*
D16*
%TO.P,J4,41,Pin_41*%
%TO.N,unconnected-(J4-Pin_41-Pad41)*%
X131500000Y-60850000D03*
D17*
%TO.P,J4,42,GND*%
%TO.N,GND*%
X131200000Y-63725000D03*
D16*
%TO.P,J4,43,GND*%
X130900000Y-60850000D03*
D17*
%TO.P,J4,44,PCLK*%
%TO.N,/PCLK*%
X130600000Y-63725000D03*
D16*
%TO.P,J4,45,GND*%
%TO.N,GND*%
X130300000Y-60850000D03*
D17*
%TO.P,J4,46,GND*%
X130000000Y-63725000D03*
D16*
%TO.P,J4,47,Pin_47*%
%TO.N,unconnected-(J4-Pin_47-Pad47)*%
X129700000Y-60850000D03*
D17*
%TO.P,J4,48,Pin_48*%
%TO.N,unconnected-(J4-Pin_48-Pad48)*%
X129400000Y-63725000D03*
D16*
%TO.P,J4,49,Pin_49*%
%TO.N,unconnected-(J4-Pin_49-Pad49)*%
X129100000Y-60850000D03*
D17*
%TO.P,J4,50,Pin_50*%
%TO.N,unconnected-(J4-Pin_50-Pad50)*%
X128800000Y-63725000D03*
D16*
%TO.P,J4,51,Pin_51*%
%TO.N,unconnected-(J4-Pin_51-Pad51)*%
X128500000Y-60850000D03*
D18*
%TO.P,J4,MP*%
%TO.N,N/C*%
X144200000Y-61175000D03*
X127800000Y-61175000D03*
%TD*%
D19*
%TO.P,D4,1,K*%
%TO.N,GND*%
X118000000Y-91262500D03*
%TO.P,D4,2,A*%
%TO.N,Net-(D4-A)*%
X118000000Y-93137500D03*
%TD*%
D20*
%TO.P,J1,1,+12V*%
%TO.N,/+12V*%
X154100000Y-123150000D03*
D21*
%TO.P,J1,2,bGND*%
%TO.N,GND*%
X154100000Y-129450000D03*
D22*
%TO.P,J1,3*%
%TO.N,N/C*%
X158900000Y-126050000D03*
%TD*%
D23*
%TO.P,J2,1,Pin_1*%
%TO.N,/+12V*%
X169800000Y-63500000D03*
%TO.P,J2,2,Pin_2*%
X171800000Y-63500000D03*
%TO.P,J2,3,Pin_3*%
%TO.N,GND*%
X173800000Y-63500000D03*
%TO.P,J2,4,Pin_4*%
X175800000Y-63500000D03*
D24*
%TO.P,J2,MP*%
%TO.N,N/C*%
X167400000Y-61250000D03*
X178200000Y-61250000D03*
%TD*%
D15*
%TO.P,R5,1*%
%TO.N,GND*%
X174937500Y-106400000D03*
%TO.P,R5,2*%
%TO.N,Net-(J6-CC1)*%
X177862500Y-106400000D03*
%TD*%
%TO.P,R6,1*%
%TO.N,GND*%
X173737500Y-99400000D03*
%TO.P,R6,2*%
%TO.N,Net-(J6-CC2)*%
X176662500Y-99400000D03*
%TD*%
D25*
%TO.P,C2,1*%
%TO.N,/+12V*%
X167200000Y-77750000D03*
%TO.P,C2,2*%
%TO.N,GND*%
X165125000Y-77750000D03*
%TD*%
D26*
%TO.P,J5,1,Pin_1*%
%TO.N,/RX*%
X143035000Y-131605000D03*
D27*
%TO.P,J5,2,Pin_2*%
%TO.N,/TX*%
X143035000Y-129065000D03*
%TD*%
D28*
%TO.P,D3,1,K*%
%TO.N,GND*%
X118000000Y-88737500D03*
%TO.P,D3,2,A*%
%TO.N,Net-(D3-A)*%
X118000000Y-86862500D03*
%TD*%
D29*
%TO.P,R4,1*%
%TO.N,/LED red*%
X123062500Y-92600000D03*
%TO.P,R4,2*%
%TO.N,Net-(D4-A)*%
X120137500Y-92600000D03*
%TD*%
%TO.P,R1,1*%
%TO.N,/+3.3V*%
X153662500Y-99000000D03*
%TO.P,R1,2*%
%TO.N,/SDA*%
X150737500Y-99000000D03*
%TD*%
D30*
%TO.P,SW1,*%
%TO.N,*%
X183797500Y-70475000D03*
X183797500Y-77485000D03*
D31*
%TO.P,SW1,1,1*%
%TO.N,GND*%
X186287500Y-71725000D03*
%TO.P,SW1,2,2*%
%TO.N,Switch B*%
X186287500Y-76225000D03*
%TD*%
D32*
%TO.P,D2,1,K*%
%TO.N,/+5V VSYS*%
X163000000Y-95750000D03*
%TO.P,D2,2,A*%
%TO.N,/VBUS-C*%
X165500000Y-95750000D03*
%TD*%
D30*
%TO.P,SW2,*%
%TO.N,*%
X183760000Y-60750000D03*
X183760000Y-67760000D03*
D31*
%TO.P,SW2,1,1*%
%TO.N,GND*%
X186250000Y-62000000D03*
%TO.P,SW2,2,2*%
%TO.N,Switch A*%
X186250000Y-66500000D03*
%TD*%
D29*
%TO.P,R3,1*%
%TO.N,/LED green*%
X123062500Y-87800000D03*
%TO.P,R3,2*%
%TO.N,Net-(D3-A)*%
X120137500Y-87800000D03*
%TD*%
D23*
%TO.P,J3,1,dGND*%
%TO.N,/SDA*%
X157000000Y-63700000D03*
%TO.P,J3,2,SCL*%
%TO.N,/SCL*%
X159000000Y-63700000D03*
%TO.P,J3,3,SDA*%
%TO.N,GND*%
X161000000Y-63700000D03*
D24*
%TO.P,J3,MP*%
%TO.N,N/C*%
X154600000Y-61450000D03*
X163400000Y-61450000D03*
%TD*%
D27*
%TO.P,U1,1,GPIO0*%
%TO.N,/TX*%
X146640000Y-117880000D03*
D33*
X147540000Y-117880000D03*
D27*
%TO.P,U1,2,GPIO1*%
%TO.N,/RX*%
X146640000Y-115340000D03*
D33*
X147540000Y-115340000D03*
D26*
%TO.P,U1,3,GND*%
%TO.N,GND*%
X146640000Y-112800000D03*
D33*
X147540000Y-112800000D03*
D27*
%TO.P,U1,5,GPIO3*%
%TO.N,unconnected-(U1-GPIO3-Pad5)*%
X146640000Y-107720000D03*
D33*
X147540000Y-107720000D03*
D27*
%TO.P,U1,6,GPIO4*%
%TO.N,Switch B*%
X146640000Y-105180000D03*
D33*
X147540000Y-105180000D03*
D27*
%TO.P,U1,7,GPIO5*%
%TO.N,Switch A*%
X146640000Y-102640000D03*
D33*
X147540000Y-102640000D03*
D26*
%TO.P,U1,8,GND*%
%TO.N,GND*%
X146640000Y-100100000D03*
D33*
X147540000Y-100100000D03*
D27*
%TO.P,U1,9,GPIO6*%
%TO.N,/SDA*%
X146640000Y-97560000D03*
D33*
X147540000Y-97560000D03*
D27*
%TO.P,U1,10,GPIO7*%
%TO.N,/SCL*%
X146640000Y-95020000D03*
D33*
X147540000Y-95020000D03*
D27*
%TO.P,U1,11,GPIO8*%
%TO.N,/P7*%
X146640000Y-92480000D03*
D33*
X147540000Y-92480000D03*
D27*
%TO.P,U1,12,GPIO9*%
%TO.N,/P6*%
X146640000Y-89940000D03*
D33*
X147540000Y-89940000D03*
D26*
%TO.P,U1,13,GND*%
%TO.N,unconnected-(U1-GND-Pad13)*%
X146640000Y-87400000D03*
D33*
X147540000Y-87400000D03*
D27*
%TO.P,U1,14,GPIO10*%
%TO.N,/P5*%
X146640000Y-84860000D03*
D33*
X147540000Y-84860000D03*
D27*
%TO.P,U1,15,GPIO11*%
%TO.N,/P4*%
X146640000Y-82320000D03*
D33*
X147540000Y-82320000D03*
D27*
%TO.P,U1,16,GPIO12*%
%TO.N,/P3*%
X146640000Y-79780000D03*
D33*
X147540000Y-79780000D03*
D27*
%TO.P,U1,17,GPIO13*%
%TO.N,/P2*%
X146640000Y-77240000D03*
D33*
X147540000Y-77240000D03*
D26*
%TO.P,U1,18,GND*%
%TO.N,GND*%
X146640000Y-74700000D03*
D33*
X147540000Y-74700000D03*
D27*
%TO.P,U1,19,GPIO14*%
%TO.N,/P1*%
X146640000Y-72160000D03*
D33*
X147540000Y-72160000D03*
D27*
%TO.P,U1,20,GPIO15*%
%TO.N,/P0*%
X146640000Y-69620000D03*
D33*
X147540000Y-69620000D03*
D27*
%TO.P,U1,21,GPIO16*%
%TO.N,/PCLK*%
X128860000Y-69620000D03*
D33*
X127960000Y-69620000D03*
D27*
%TO.P,U1,22,GPIO17*%
%TO.N,/Vsync*%
X128860000Y-72160000D03*
D33*
X127960000Y-72160000D03*
D26*
%TO.P,U1,23,GND*%
%TO.N,GND*%
X128860000Y-74700000D03*
D33*
X127960000Y-74700000D03*
D27*
%TO.P,U1,24,GPIO18*%
%TO.N,/DATAEN_CMD*%
X128860000Y-77240000D03*
D33*
X127960000Y-77240000D03*
D27*
%TO.P,U1,25,GPIO19*%
%TO.N,/Hsync*%
X128860000Y-79780000D03*
D33*
X127960000Y-79780000D03*
D27*
%TO.P,U1,26,GPIO20*%
%TO.N,/GPIO 9*%
X128860000Y-82320000D03*
D33*
X127960000Y-82320000D03*
D27*
%TO.P,U1,27,GPIO21*%
%TO.N,/HOST_IRQ*%
X128860000Y-84860000D03*
D33*
X127960000Y-84860000D03*
D26*
%TO.P,U1,28,GND*%
%TO.N,GND*%
X128860000Y-87400000D03*
D33*
X127960000Y-87400000D03*
D27*
%TO.P,U1,29,GPIO22*%
%TO.N,/LED green*%
X128860000Y-89940000D03*
D33*
X127960000Y-89940000D03*
D27*
%TO.P,U1,30,RUN*%
%TO.N,unconnected-(U1-RUN-Pad30)*%
X128860000Y-92480000D03*
D33*
X127960000Y-92480000D03*
D27*
%TO.P,U1,31,GPIO26_ADC0*%
%TO.N,/LED red*%
X128860000Y-95020000D03*
D33*
X127960000Y-95020000D03*
D27*
%TO.P,U1,32,GPIO27_ADC1*%
%TO.N,unconnected-(U1-GPIO27_ADC1-Pad32)*%
X128860000Y-97560000D03*
D33*
X127960000Y-97560000D03*
D26*
%TO.P,U1,33,AGND*%
%TO.N,GND*%
X128860000Y-100100000D03*
D33*
X127960000Y-100100000D03*
D27*
%TO.P,U1,34,GPIO28_ADC2*%
%TO.N,unconnected-(U1-GPIO28_ADC2-Pad34)*%
X128860000Y-102640000D03*
D33*
X127960000Y-102640000D03*
D27*
%TO.P,U1,35,ADC_VREF*%
%TO.N,unconnected-(U1-ADC_VREF-Pad35)*%
X128860000Y-105180000D03*
D33*
X127960000Y-105180000D03*
D27*
%TO.P,U1,36,3V3*%
%TO.N,/+3.3V*%
X128860000Y-107720000D03*
D33*
X127960000Y-107720000D03*
D27*
%TO.P,U1,37,3V3_EN*%
%TO.N,unconnected-(U1-3V3_EN-Pad37)*%
X128860000Y-110260000D03*
D33*
X127960000Y-110260000D03*
D26*
%TO.P,U1,38,GND*%
%TO.N,GND*%
X128860000Y-112800000D03*
D33*
X127960000Y-112800000D03*
D27*
%TO.P,U1,39,VSYS*%
%TO.N,/+5V VSYS*%
X128860000Y-115340000D03*
D33*
X127960000Y-115340000D03*
D27*
%TO.P,U1,40,VBUS*%
%TO.N,unconnected-(U1-VBUS-Pad40)*%
X128860000Y-117880000D03*
D33*
X127960000Y-117880000D03*
%TD*%
D34*
%TO.P,C1,1*%
%TO.N,/+12V*%
X169200000Y-72200000D03*
%TO.P,C1,2*%
%TO.N,GND*%
X174600000Y-72200000D03*
%TD*%
D35*
%TO.P,U2,1,GND*%
%TO.N,GND*%
X172646349Y-84022132D03*
%TO.P,U2,2,VO*%
%TO.N,/+5V*%
X170671811Y-82882132D03*
D36*
X167521811Y-88338092D03*
D35*
%TO.P,U2,3,VI*%
%TO.N,/+12V*%
X168697273Y-81742132D03*
%TD*%
D37*
%TO.P,J6,A1,GND*%
%TO.N,GND*%
X181355000Y-106450000D03*
%TO.P,J6,A4,VBUS*%
%TO.N,/VBUS-C*%
X181355000Y-105650000D03*
D38*
%TO.P,J6,A5,CC1*%
%TO.N,Net-(J6-CC1)*%
X181355000Y-104450000D03*
%TO.P,J6,A6,D+*%
%TO.N,/D+*%
X181355000Y-103450000D03*
%TO.P,J6,A7,D-*%
%TO.N,/D-*%
X181355000Y-102950000D03*
%TO.P,J6,A8,SBU1*%
%TO.N,unconnected-(J6-SBU1-PadA8)*%
X181355000Y-101950000D03*
D37*
%TO.P,J6,A9,VBUS*%
%TO.N,/VBUS-C*%
X181355000Y-100750000D03*
%TO.P,J6,A12,GND*%
%TO.N,GND*%
X181355000Y-99950000D03*
%TO.P,J6,B1,GND*%
X181355000Y-99950000D03*
%TO.P,J6,B4,VBUS*%
%TO.N,/VBUS-C*%
X181355000Y-100750000D03*
D38*
%TO.P,J6,B5,CC2*%
%TO.N,Net-(J6-CC2)*%
X181355000Y-101450000D03*
%TO.P,J6,B6,D+*%
%TO.N,/D+*%
X181355000Y-102450000D03*
%TO.P,J6,B7,D-*%
%TO.N,/D-*%
X181355000Y-103950000D03*
%TO.P,J6,B8,SBU2*%
%TO.N,unconnected-(J6-SBU2-PadB8)*%
X181355000Y-104950000D03*
D37*
%TO.P,J6,B9,VBUS*%
%TO.N,/VBUS-C*%
X181355000Y-105650000D03*
%TO.P,J6,B12,GND*%
%TO.N,GND*%
X181355000Y-106450000D03*
D39*
%TO.P,J6,S1,SHIELD*%
%TO.N,unconnected-(J6-SHIELD-PadS1)*%
X182270000Y-107520000D03*
D40*
X186450000Y-107520000D03*
D39*
X182270000Y-98880000D03*
D40*
X186450000Y-98880000D03*
%TD*%
D41*
%TO.N,GND*%
X131500000Y-65000000D03*
X126400000Y-60600000D03*
X160300000Y-67820000D03*
X135200000Y-65200000D03*
X178250000Y-74750000D03*
X134000000Y-58800000D03*
X178250000Y-69250000D03*
X169400000Y-100400000D03*
X165130000Y-76060000D03*
X161700000Y-67800000D03*
X178250000Y-72000000D03*
X175600000Y-108200000D03*
X173521811Y-85819439D03*
X118000000Y-90000000D03*
X142200000Y-65000000D03*
X181170000Y-95980000D03*
X178240000Y-66320000D03*
X129500000Y-65000000D03*
%TO.N,/D-*%
X134970000Y-120040000D03*
%TO.N,/D+*%
X140450000Y-120020000D03*
%TO.N,Switch B*%
X154650000Y-104320000D03*
X152430000Y-104320000D03*
%TO.N,Switch A*%
X152450000Y-102610000D03*
X154660000Y-102600000D03*
%TD*%
D42*
%TO.N,/+5V*%
X169829167Y-93500000D02*
X170746811Y-92582356D01*
X165500000Y-93500000D02*
X169829167Y-93500000D01*
D43*
%TO.N,GND*%
X135873819Y-65200000D02*
X135200000Y-65200000D01*
D44*
X180000000Y-97150000D02*
X180000000Y-98595000D01*
X180000000Y-98595000D02*
X181355000Y-99950000D01*
D43*
X133900000Y-60850000D02*
X133900000Y-58900000D01*
D42*
X161000000Y-67160000D02*
X160300000Y-67820000D01*
D43*
X136600000Y-64473819D02*
X135873819Y-65200000D01*
D44*
X180200000Y-107800000D02*
X180200000Y-107000000D01*
D43*
X118000000Y-90000000D02*
X118000000Y-91262500D01*
X130000000Y-63725000D02*
X130000000Y-64500000D01*
X172646349Y-84022132D02*
X173521811Y-84659439D01*
X136600000Y-63725000D02*
X136600000Y-64473819D01*
X175600000Y-108200000D02*
X174940000Y-107560000D01*
X131200000Y-64700000D02*
X131500000Y-65000000D01*
X133900000Y-60850000D02*
X139300000Y-60850000D01*
X170430000Y-99400000D02*
X173737500Y-99400000D01*
X129860000Y-59760000D02*
X127240000Y-59760000D01*
X118000000Y-88737500D02*
X118000000Y-90000000D01*
X133900000Y-58900000D02*
X134000000Y-58800000D01*
X130300000Y-60850000D02*
X130300000Y-60200000D01*
X130000000Y-64500000D02*
X129500000Y-65000000D01*
X169400000Y-100400000D02*
X170430000Y-99400000D01*
D44*
X179800000Y-108200000D02*
X180200000Y-107800000D01*
D43*
X130300000Y-60850000D02*
X130900000Y-60850000D01*
X173521811Y-84659439D02*
X173521811Y-85819439D01*
D44*
X180200000Y-107000000D02*
X180750000Y-106450000D01*
D43*
X173521811Y-85819439D02*
X173442974Y-87946612D01*
X127240000Y-59760000D02*
X126400000Y-60600000D01*
D44*
X175600000Y-108200000D02*
X179800000Y-108200000D01*
D43*
X174940000Y-107560000D02*
X174937500Y-106400000D01*
X131200000Y-63725000D02*
X131200000Y-64700000D01*
X130300000Y-60200000D02*
X129860000Y-59760000D01*
X142000000Y-63725000D02*
X142000000Y-64800000D01*
X142000000Y-64800000D02*
X142200000Y-65000000D01*
D44*
X181170000Y-95980000D02*
X180000000Y-97150000D01*
D43*
X180750000Y-106450000D02*
X181355000Y-106450000D01*
D42*
X161000000Y-63700000D02*
X161000000Y-67160000D01*
X161000000Y-67160000D02*
X161700000Y-67800000D01*
D43*
X165125000Y-77750000D02*
X165130000Y-76060000D01*
%TO.N,Net-(D3-A)*%
X118000000Y-86862500D02*
X119200000Y-86862500D01*
X119200000Y-86862500D02*
X120137500Y-87800000D01*
%TO.N,Net-(D4-A)*%
X118000000Y-93137500D02*
X119600000Y-93137500D01*
X119600000Y-93137500D02*
X120137500Y-92600000D01*
%TO.N,/SCL*%
X153600000Y-59000000D02*
X153200000Y-59400000D01*
X150675000Y-94925000D02*
X150675000Y-96000000D01*
X154600000Y-80200000D02*
X154600000Y-91000000D01*
X155200000Y-79600000D02*
X154600000Y-80200000D01*
X153200000Y-59400000D02*
X153200000Y-66800000D01*
X157400000Y-59000000D02*
X153600000Y-59000000D01*
X155200000Y-68800000D02*
X155200000Y-79600000D01*
X149695000Y-95020000D02*
X146640000Y-95020000D01*
X154600000Y-91000000D02*
X150675000Y-94925000D01*
X153200000Y-66800000D02*
X155200000Y-68800000D01*
X150675000Y-96000000D02*
X149695000Y-95020000D01*
X159000000Y-60600000D02*
X157400000Y-59000000D01*
X159000000Y-63700000D02*
X159000000Y-60600000D01*
%TO.N,/SDA*%
X157000000Y-79200000D02*
X157000000Y-78000000D01*
X150737500Y-99000000D02*
X149297500Y-97560000D01*
X155400000Y-80800000D02*
X157000000Y-79200000D01*
X155400000Y-91200000D02*
X155400000Y-80800000D01*
X152200000Y-94400000D02*
X155400000Y-91200000D01*
X152200000Y-97537500D02*
X152200000Y-94400000D01*
X157000000Y-63700000D02*
X157000000Y-78000000D01*
X149297500Y-97560000D02*
X146640000Y-97560000D01*
X150737500Y-99000000D02*
X152200000Y-97537500D01*
%TO.N,/+12V*%
X171800000Y-63500000D02*
X169800000Y-63500000D01*
D42*
%TO.N,/+5V*%
X170999952Y-88338092D02*
X167521811Y-88338092D01*
X168278381Y-88338092D02*
X171396811Y-91456522D01*
D45*
X170671811Y-82882132D02*
X167521811Y-88338092D01*
D42*
X172405474Y-89743614D02*
X170999952Y-88338092D01*
D43*
X167521811Y-88338092D02*
X168278381Y-88338092D01*
%TO.N,/PCLK*%
X132200000Y-80025000D02*
X132373400Y-80025000D01*
X130973400Y-73823400D02*
X130800000Y-73823400D01*
X131000000Y-66400000D02*
X130600000Y-66000000D01*
X130800000Y-74275000D02*
X130973400Y-74275000D01*
X130800000Y-81025000D02*
X130626600Y-81025000D01*
X132200000Y-77775000D02*
X132026600Y-77775000D01*
X130453200Y-81198400D02*
X130453200Y-81301600D01*
X132373400Y-80475000D02*
X132200000Y-80475000D01*
X132200000Y-80475000D02*
X132026600Y-80475000D01*
X130626600Y-77875000D02*
X130800000Y-77875000D01*
X131200000Y-66400000D02*
X131000000Y-66400000D01*
X131800000Y-82400000D02*
X132200000Y-82000000D01*
X130800000Y-78325000D02*
X130626600Y-78325000D01*
X130973400Y-74725000D02*
X130800000Y-74725000D01*
X132200000Y-73379418D02*
X132200000Y-67400000D01*
X131146800Y-77148400D02*
X131146800Y-77251600D01*
X130626600Y-76975000D02*
X130800000Y-76975000D01*
X130626600Y-75175000D02*
X130800000Y-75175000D01*
X130453200Y-73998400D02*
X130453200Y-74101600D01*
X132373400Y-79575000D02*
X132200000Y-79575000D01*
X132200000Y-67400000D02*
X131200000Y-66400000D01*
X131146800Y-78948400D02*
X131146800Y-79051600D01*
X131146800Y-74448400D02*
X131146800Y-74551600D01*
X130453200Y-78498400D02*
X130453200Y-78601600D01*
X132546800Y-78951600D02*
X132546800Y-78848400D01*
X130800000Y-76525000D02*
X130626600Y-76525000D01*
X131853200Y-81201600D02*
X131853200Y-81098400D01*
X131146800Y-78048400D02*
X131146800Y-78151600D01*
X131146800Y-73546800D02*
X131146800Y-73650000D01*
X130973400Y-80125000D02*
X130800000Y-80125000D01*
X130800000Y-78775000D02*
X130973400Y-78775000D01*
X130453200Y-80298400D02*
X130453200Y-80401600D01*
X131853200Y-79401600D02*
X131853200Y-79298400D01*
X130800000Y-73823400D02*
X130800000Y-73825000D01*
X132200000Y-81376600D02*
X132200000Y-81375000D01*
X130453200Y-79398400D02*
X130453200Y-79501600D01*
X132373400Y-78675000D02*
X132200000Y-78675000D01*
X129420000Y-69620000D02*
X130800000Y-71000000D01*
X132200000Y-77151600D02*
X132200000Y-73379418D01*
X130453200Y-75798400D02*
X130453200Y-75901600D01*
X132200000Y-81375000D02*
X132026600Y-81375000D01*
X130973400Y-81025000D02*
X130800000Y-81025000D01*
X130800000Y-80125000D02*
X130626600Y-80125000D01*
X132200000Y-79125000D02*
X132373400Y-79125000D01*
X130800000Y-77425000D02*
X130626600Y-77425000D01*
X132026600Y-80925000D02*
X132200000Y-80925000D01*
X132200000Y-78675000D02*
X132026600Y-78675000D01*
X131200000Y-82400000D02*
X131800000Y-82400000D01*
X130626600Y-79675000D02*
X130800000Y-79675000D01*
X131146800Y-80748400D02*
X131146800Y-80851600D01*
X130800000Y-71000000D02*
X130800000Y-73200000D01*
X130973400Y-77425000D02*
X130800000Y-77425000D01*
X132200000Y-80925000D02*
X132373400Y-80925000D01*
X130800000Y-80575000D02*
X130973400Y-80575000D01*
X131146800Y-75348400D02*
X131146800Y-75451600D01*
X132200000Y-78225000D02*
X132373400Y-78225000D01*
X131853200Y-80301600D02*
X131853200Y-80198400D01*
X130800000Y-75175000D02*
X130973400Y-75175000D01*
X131853200Y-78501600D02*
X131853200Y-78398400D01*
X131853200Y-77601600D02*
X131853200Y-77498400D01*
X130973400Y-79225000D02*
X130800000Y-79225000D01*
X131146800Y-76248400D02*
X131146800Y-76351600D01*
X130800000Y-75625000D02*
X130626600Y-75625000D01*
X132373400Y-77775000D02*
X132200000Y-77775000D01*
X130973400Y-75625000D02*
X130800000Y-75625000D01*
X130800000Y-74725000D02*
X130626600Y-74725000D01*
X130453200Y-77598400D02*
X130453200Y-77701600D01*
X130800000Y-81648400D02*
X130800000Y-82000000D01*
X130800000Y-79675000D02*
X130973400Y-79675000D01*
X132200000Y-79575000D02*
X132026600Y-79575000D01*
X132546800Y-79851600D02*
X132546800Y-79748400D01*
X132546800Y-80751600D02*
X132546800Y-80648400D01*
X132026600Y-78225000D02*
X132200000Y-78225000D01*
X130800000Y-73825000D02*
X130626600Y-73825000D01*
X130453200Y-76698400D02*
X130453200Y-76801600D01*
X132026600Y-80025000D02*
X132200000Y-80025000D01*
X130800000Y-77875000D02*
X130973400Y-77875000D01*
X131146800Y-79848400D02*
X131146800Y-79951600D01*
X130800000Y-76075000D02*
X130973400Y-76075000D01*
X130626600Y-74275000D02*
X130800000Y-74275000D01*
X132026600Y-79125000D02*
X132200000Y-79125000D01*
X128860000Y-69620000D02*
X129420000Y-69620000D01*
X130626600Y-76075000D02*
X130800000Y-76075000D01*
X132546800Y-78051600D02*
X132546800Y-77948400D01*
X130800000Y-79225000D02*
X130626600Y-79225000D01*
X130800000Y-76975000D02*
X130973400Y-76975000D01*
X132373400Y-81376600D02*
X132200000Y-81376600D01*
X130973400Y-76525000D02*
X130800000Y-76525000D01*
X130600000Y-66000000D02*
X130600000Y-63725000D01*
X130626600Y-80575000D02*
X130800000Y-80575000D01*
X132546800Y-81653200D02*
X132546800Y-81550000D01*
X130453200Y-74898400D02*
X130453200Y-75001600D01*
X130973400Y-78325000D02*
X130800000Y-78325000D01*
X130626600Y-78775000D02*
X130800000Y-78775000D01*
X130800000Y-82000000D02*
X131200000Y-82400000D01*
X130626600Y-75625000D02*
G75*
G03*
X130453200Y-75798400I0J-173400D01*
G01*
X130453200Y-77701600D02*
G75*
G03*
X130626600Y-77875000I173400J0D01*
G01*
X132026600Y-80025000D02*
G75*
G03*
X131853200Y-80198400I0J-173400D01*
G01*
X130626600Y-80125000D02*
G75*
G03*
X130453200Y-80298400I0J-173400D01*
G01*
X130453200Y-79501600D02*
G75*
G03*
X130626600Y-79675000I173400J0D01*
G01*
X130973400Y-81025000D02*
G75*
G03*
X131146800Y-80851600I0J173400D01*
G01*
X132546800Y-78848400D02*
G75*
G03*
X132373400Y-78675000I-173400J0D01*
G01*
X130453200Y-75001600D02*
G75*
G03*
X130626600Y-75175000I173400J0D01*
G01*
X131146800Y-78948400D02*
G75*
G03*
X130973400Y-78775000I-173400J0D01*
G01*
X131146800Y-80748400D02*
G75*
G03*
X130973400Y-80575000I-173400J0D01*
G01*
X132373400Y-81826600D02*
G75*
G03*
X132546800Y-81653200I0J173400D01*
G01*
X130453200Y-74101600D02*
G75*
G03*
X130626600Y-74275000I173400J0D01*
G01*
X131853200Y-77601600D02*
G75*
G03*
X132026600Y-77775000I173400J0D01*
G01*
X132546800Y-77948400D02*
G75*
G03*
X132373400Y-77775000I-173400J0D01*
G01*
X130626600Y-74725000D02*
G75*
G03*
X130453200Y-74898400I0J-173400D01*
G01*
X132546800Y-80648400D02*
G75*
G03*
X132373400Y-80475000I-173400J0D01*
G01*
X131146800Y-78048400D02*
G75*
G03*
X130973400Y-77875000I-173400J0D01*
G01*
X130973400Y-76525000D02*
G75*
G03*
X131146800Y-76351600I0J173400D01*
G01*
X130626600Y-73825000D02*
G75*
G03*
X130453200Y-73998400I0J-173400D01*
G01*
X131146800Y-79848400D02*
G75*
G03*
X130973400Y-79675000I-173400J0D01*
G01*
X131146800Y-75348400D02*
G75*
G03*
X130973400Y-75175000I-173400J0D01*
G01*
X130973400Y-77425000D02*
G75*
G03*
X131146800Y-77251600I0J173400D01*
G01*
X130800000Y-81648400D02*
G75*
G03*
X130626600Y-81475000I-173400J0D01*
G01*
X132026600Y-77325000D02*
G75*
G03*
X132200000Y-77151600I0J173400D01*
G01*
X130626600Y-76525000D02*
G75*
G03*
X130453200Y-76698400I0J-173400D01*
G01*
X130973400Y-80125000D02*
G75*
G03*
X131146800Y-79951600I0J173400D01*
G01*
X132373400Y-80025000D02*
G75*
G03*
X132546800Y-79851600I0J173400D01*
G01*
X131146800Y-77148400D02*
G75*
G03*
X130973400Y-76975000I-173400J0D01*
G01*
X131853200Y-78501600D02*
G75*
G03*
X132026600Y-78675000I173400J0D01*
G01*
X131853200Y-81201600D02*
G75*
G03*
X132026600Y-81375000I173400J0D01*
G01*
X130973400Y-73823400D02*
G75*
G03*
X131146800Y-73650000I0J173400D01*
G01*
X132026600Y-80925000D02*
G75*
G03*
X131853200Y-81098400I0J-173400D01*
G01*
X132373400Y-79125000D02*
G75*
G03*
X132546800Y-78951600I0J173400D01*
G01*
X130626600Y-81025000D02*
G75*
G03*
X130453200Y-81198400I0J-173400D01*
G01*
X132546800Y-79748400D02*
G75*
G03*
X132373400Y-79575000I-173400J0D01*
G01*
X130453200Y-80401600D02*
G75*
G03*
X130626600Y-80575000I173400J0D01*
G01*
X130973400Y-79225000D02*
G75*
G03*
X131146800Y-79051600I0J173400D01*
G01*
X131146800Y-76248400D02*
G75*
G03*
X130973400Y-76075000I-173400J0D01*
G01*
X132373400Y-81826600D02*
G75*
G03*
X132200000Y-82000000I0J-173400D01*
G01*
X132026600Y-79125000D02*
G75*
G03*
X131853200Y-79298400I0J-173400D01*
G01*
X130626600Y-79225000D02*
G75*
G03*
X130453200Y-79398400I0J-173400D01*
G01*
X131146800Y-73546800D02*
G75*
G03*
X130973400Y-73373400I-173400J0D01*
G01*
X131146800Y-74448400D02*
G75*
G03*
X130973400Y-74275000I-173400J0D01*
G01*
X130973400Y-78325000D02*
G75*
G03*
X131146800Y-78151600I0J173400D01*
G01*
X132373400Y-80925000D02*
G75*
G03*
X132546800Y-80751600I0J173400D01*
G01*
X132026600Y-78225000D02*
G75*
G03*
X131853200Y-78398400I0J-173400D01*
G01*
X130973400Y-75625000D02*
G75*
G03*
X131146800Y-75451600I0J173400D01*
G01*
X131853200Y-79401600D02*
G75*
G03*
X132026600Y-79575000I173400J0D01*
G01*
X132373400Y-78225000D02*
G75*
G03*
X132546800Y-78051600I0J173400D01*
G01*
X130800000Y-73200000D02*
G75*
G03*
X130973400Y-73373400I173400J0D01*
G01*
X132546800Y-81550000D02*
G75*
G03*
X132373400Y-81376600I-173400J0D01*
G01*
X130626600Y-77425000D02*
G75*
G03*
X130453200Y-77598400I0J-173400D01*
G01*
X130973400Y-74725000D02*
G75*
G03*
X131146800Y-74551600I0J173400D01*
G01*
X131853200Y-80301600D02*
G75*
G03*
X132026600Y-80475000I173400J0D01*
G01*
X130453200Y-81301600D02*
G75*
G03*
X130626600Y-81475000I173400J0D01*
G01*
X130453200Y-78601600D02*
G75*
G03*
X130626600Y-78775000I173400J0D01*
G01*
X130453200Y-76801600D02*
G75*
G03*
X130626600Y-76975000I173400J0D01*
G01*
X132026600Y-77325000D02*
G75*
G03*
X131853200Y-77498400I0J-173400D01*
G01*
X130626600Y-78325000D02*
G75*
G03*
X130453200Y-78498400I0J-173400D01*
G01*
X130453200Y-75901600D02*
G75*
G03*
X130626600Y-76075000I173400J0D01*
G01*
%TO.N,/GPIO 9*%
X132100000Y-60850000D02*
X132100000Y-59900000D01*
X117200000Y-61000000D02*
X117200000Y-78800000D01*
X120720000Y-82320000D02*
X128860000Y-82320000D01*
X119200000Y-59000000D02*
X117200000Y-61000000D01*
X132100000Y-59900000D02*
X131200000Y-59000000D01*
X131200000Y-59000000D02*
X119200000Y-59000000D01*
X117200000Y-78800000D02*
X120720000Y-82320000D01*
%TO.N,/P6*%
X144000000Y-91400000D02*
X145460000Y-89940000D01*
X137400000Y-64800000D02*
X135000000Y-67200000D01*
X143400000Y-94200000D02*
X143450000Y-94200000D01*
X136200000Y-94200000D02*
X142200000Y-94200000D01*
X135000000Y-67200000D02*
X135000000Y-93000000D01*
X139600000Y-64400000D02*
X139200000Y-64800000D01*
X135000000Y-93000000D02*
X136200000Y-94200000D01*
X144000000Y-94000000D02*
X144000000Y-91400000D01*
X142500000Y-94500000D02*
X142500000Y-94900000D01*
X139200000Y-64800000D02*
X137400000Y-64800000D01*
X143100000Y-94900000D02*
X143100000Y-94500000D01*
X145460000Y-89940000D02*
X146640000Y-89940000D01*
X143450000Y-94200000D02*
X143800000Y-94200000D01*
X143800000Y-94200000D02*
X144000000Y-94000000D01*
X139600000Y-63725000D02*
X139600000Y-64400000D01*
X142500000Y-94500000D02*
G75*
G03*
X142200000Y-94200000I-300000J0D01*
G01*
X142500000Y-94900000D02*
G75*
G03*
X142800000Y-95200000I300000J0D01*
G01*
X142800000Y-95200000D02*
G75*
G03*
X143100000Y-94900000I0J300000D01*
G01*
X143400000Y-94200000D02*
G75*
G03*
X143100000Y-94500000I0J-300000D01*
G01*
%TO.N,/P7*%
X150950000Y-63300000D02*
X151300000Y-63300000D01*
X149320000Y-92480000D02*
X146640000Y-92480000D01*
X151600000Y-63650000D02*
X151600000Y-90200000D01*
X147400000Y-58200000D02*
X151600000Y-62400000D01*
X151600000Y-63600000D02*
X151600000Y-63650000D01*
X139900000Y-60850000D02*
X139900000Y-59300000D01*
X151300000Y-62700000D02*
X150950000Y-62700000D01*
X139900000Y-59300000D02*
X141000000Y-58200000D01*
X151600000Y-90200000D02*
X149320000Y-92480000D01*
X141000000Y-58200000D02*
X147400000Y-58200000D01*
X151600000Y-63600000D02*
G75*
G03*
X151300000Y-63300000I-300000J0D01*
G01*
X150650000Y-63000000D02*
G75*
G03*
X150950000Y-63300000I300000J0D01*
G01*
X150950000Y-62700000D02*
G75*
G03*
X150650000Y-63000000I0J-300000D01*
G01*
X151300000Y-62700000D02*
G75*
G03*
X151600000Y-62400000I0J300000D01*
G01*
%TO.N,/P4*%
X139724150Y-83613115D02*
X139724150Y-83613114D01*
X138168628Y-67041421D02*
X138451470Y-67324263D01*
X144800000Y-82800000D02*
X145280000Y-82320000D01*
X138875735Y-66900000D02*
X138592892Y-66617157D01*
X137964580Y-83675615D02*
X138875617Y-82764583D01*
X138451470Y-67748527D02*
X138451471Y-67748528D01*
X145280000Y-82320000D02*
X146640000Y-82320000D01*
X138813113Y-84524148D02*
X139724150Y-83613115D01*
X144619121Y-83891915D02*
X143951470Y-83224263D01*
X136600000Y-69600000D02*
X136600000Y-81400000D01*
X140950000Y-84900000D02*
X140950000Y-84555801D01*
X143770593Y-84740443D02*
X143315074Y-84284924D01*
X139905030Y-84705030D02*
X140400000Y-85200000D01*
X138388850Y-84099884D02*
X138388848Y-84099883D01*
X144375735Y-82800000D02*
X144375734Y-82800000D01*
X137540317Y-83251351D02*
X137540315Y-83251350D01*
X143315074Y-84284924D02*
X142859557Y-83829407D01*
X139299882Y-83188847D02*
X138388850Y-84099884D01*
X140200000Y-63725000D02*
X140200000Y-66000000D01*
X138875734Y-66900000D02*
X138875735Y-66900000D01*
X141850000Y-85200000D02*
X142400000Y-85200000D01*
X142400000Y-85200000D02*
X142678680Y-84921322D01*
X137116047Y-82827082D02*
X138027084Y-81916050D01*
X136600000Y-81400000D02*
X136935168Y-81735167D01*
X138027084Y-81916050D02*
X138027084Y-81916049D01*
X139905030Y-84280765D02*
X139905029Y-84280765D01*
X136691784Y-82402818D02*
X136691782Y-82402817D01*
X136935168Y-82159431D02*
X136691784Y-82402818D01*
X144132349Y-82556614D02*
X144375735Y-82800000D01*
X143951470Y-83224263D02*
X143708085Y-82980878D01*
X141550000Y-84555801D02*
X141550000Y-84900000D01*
X140400000Y-85200000D02*
X140650000Y-85200000D01*
X143283821Y-83405143D02*
X143739340Y-83860662D01*
X140200000Y-66000000D02*
X139300000Y-66900000D01*
X138875617Y-82764583D02*
X138875617Y-82764582D01*
X140148415Y-84037379D02*
X139905030Y-84280765D01*
X138451471Y-67748528D02*
X136600000Y-69600000D01*
X138451349Y-82340314D02*
X137540317Y-83251351D01*
X143102944Y-84921322D02*
X143346329Y-85164707D01*
X143739340Y-83860662D02*
X144194857Y-84316179D01*
X136691733Y-82402768D02*
G75*
G03*
X136691783Y-82827082I212167J-212132D01*
G01*
X143708039Y-82556568D02*
G75*
G03*
X143708085Y-82980878I212161J-212132D01*
G01*
X144375734Y-82800000D02*
G75*
G03*
X144800000Y-82800000I212133J212134D01*
G01*
X139905032Y-84280768D02*
G75*
G03*
X139905030Y-84705030I212168J-212132D01*
G01*
X140148368Y-84037331D02*
G75*
G03*
X140148415Y-83613115I-212068J212131D01*
G01*
X141549999Y-84555801D02*
G75*
G03*
X141250000Y-84255801I-299999J1D01*
G01*
X143102943Y-84921323D02*
G75*
G03*
X142678681Y-84921323I-212131J-212131D01*
G01*
X143346330Y-85164706D02*
G75*
G03*
X143770592Y-85164706I212131J212131D01*
G01*
X138168639Y-66617168D02*
G75*
G03*
X138168628Y-67041421I212161J-212132D01*
G01*
X142859582Y-83405168D02*
G75*
G03*
X142859557Y-83829407I212118J-212132D01*
G01*
X141550000Y-84900000D02*
G75*
G03*
X141850000Y-85200000I300000J0D01*
G01*
X138875734Y-66900000D02*
G75*
G03*
X139300000Y-66900000I212133J212134D01*
G01*
X143283820Y-83405144D02*
G75*
G03*
X142859558Y-83405144I-212131J-212131D01*
G01*
X138388833Y-84099868D02*
G75*
G03*
X138388849Y-84524148I212167J-212132D01*
G01*
X137540333Y-83251368D02*
G75*
G03*
X137540316Y-83675615I212167J-212132D01*
G01*
X140148433Y-83613097D02*
G75*
G03*
X139724150Y-83613114I-212133J-212103D01*
G01*
X139299866Y-83188831D02*
G75*
G03*
X139299881Y-82764584I-212066J212131D01*
G01*
X138451475Y-67748532D02*
G75*
G03*
X138451470Y-67324263I-212175J212132D01*
G01*
X139299833Y-82764632D02*
G75*
G03*
X138875617Y-82764582I-212133J-212068D01*
G01*
X138451367Y-82340332D02*
G75*
G03*
X138451349Y-81916050I-212167J212132D01*
G01*
X138592891Y-66617158D02*
G75*
G03*
X138168629Y-66617158I-212131J-212131D01*
G01*
X138451333Y-81916066D02*
G75*
G03*
X138027084Y-81916049I-212133J-212134D01*
G01*
X144194858Y-84316178D02*
G75*
G03*
X144619120Y-84316178I212131J212131D01*
G01*
X138388850Y-84524147D02*
G75*
G03*
X138813112Y-84524147I212131J212131D01*
G01*
X140650000Y-85200000D02*
G75*
G03*
X140950000Y-84900000I0J300000D01*
G01*
X136691784Y-82827081D02*
G75*
G03*
X137116046Y-82827081I212131J212131D01*
G01*
X144619073Y-84316131D02*
G75*
G03*
X144619120Y-83891916I-212073J212131D01*
G01*
X143770618Y-85164732D02*
G75*
G03*
X143770593Y-84740443I-212118J212132D01*
G01*
X136935169Y-82159432D02*
G75*
G03*
X136935168Y-81735167I-212169J212132D01*
G01*
X144132348Y-82556615D02*
G75*
G03*
X143708086Y-82556615I-212131J-212131D01*
G01*
X137540317Y-83675614D02*
G75*
G03*
X137964579Y-83675614I212131J212131D01*
G01*
X141250000Y-84255800D02*
G75*
G03*
X140950000Y-84555801I0J-300000D01*
G01*
%TO.N,/P5*%
X148600000Y-63000000D02*
X151000000Y-65400000D01*
X149800000Y-89400000D02*
X149800000Y-85400000D01*
X140500000Y-60850000D02*
X140500000Y-59500000D01*
X150200000Y-89800000D02*
X149800000Y-89400000D01*
X151000000Y-89400000D02*
X150600000Y-89800000D01*
X146800000Y-58800000D02*
X148600000Y-60600000D01*
X150600000Y-89800000D02*
X150200000Y-89800000D01*
X149260000Y-84860000D02*
X146640000Y-84860000D01*
X148600000Y-60600000D02*
X148600000Y-63000000D01*
X140500000Y-59500000D02*
X141200000Y-58800000D01*
X151000000Y-65400000D02*
X151000000Y-89400000D01*
X149800000Y-85400000D02*
X149260000Y-84860000D01*
X141200000Y-58800000D02*
X146800000Y-58800000D01*
%TO.N,/P2*%
X140182647Y-79247493D02*
X139927201Y-79502938D01*
X139287044Y-79287044D02*
X139287044Y-78637044D01*
X144475735Y-77500000D02*
X144326355Y-77350620D01*
X139748299Y-72337044D02*
X139587044Y-72337044D01*
X139287044Y-71407035D02*
X139287044Y-71112956D01*
X142951470Y-80848527D02*
X142951471Y-80848528D01*
X143375734Y-80000000D02*
X143375735Y-80000000D01*
X138987044Y-78337044D02*
X138625789Y-78337044D01*
X139948299Y-77137044D02*
X139287044Y-77137044D01*
X139748299Y-74737044D02*
X139287044Y-74737044D01*
X144475734Y-77500000D02*
X144475735Y-77500000D01*
X143800000Y-78600000D02*
X143800000Y-80000000D01*
X141031180Y-80096025D02*
X140096023Y-81031178D01*
X139287044Y-73537044D02*
X138625789Y-73537044D01*
X138625789Y-74137044D02*
X139287044Y-74137044D01*
X139287044Y-72937044D02*
X139748299Y-72937044D01*
X141031180Y-80096024D02*
X141031180Y-80096025D01*
X139287044Y-74137044D02*
X139748299Y-74137044D01*
X146640000Y-77240000D02*
X145160000Y-77240000D01*
X139287044Y-77137044D02*
X138625789Y-77137044D01*
X140800000Y-68742470D02*
X140800000Y-68400000D01*
X144051471Y-78348528D02*
X143800000Y-78600000D01*
X143375735Y-80000000D02*
X143120289Y-79744554D01*
X139671760Y-80606914D02*
X140606912Y-79671757D01*
X143902091Y-77774884D02*
X144051470Y-77924263D01*
X139287044Y-72037044D02*
X139287044Y-71407035D01*
X139287044Y-71112956D02*
X140800000Y-69600000D01*
X139671758Y-80606913D02*
X139671760Y-80606914D01*
X140800000Y-68400000D02*
X140800000Y-63725000D01*
X139287044Y-75937044D02*
X138625789Y-75937044D01*
X140542469Y-69342470D02*
X140542469Y-69000000D01*
X141199999Y-80775735D02*
X141200000Y-80775735D01*
X139287044Y-75337044D02*
X139748299Y-75337044D01*
X138625789Y-72937044D02*
X139287044Y-72937044D01*
X140671235Y-69471235D02*
X140671234Y-69471235D01*
X142600000Y-81200000D02*
X141200000Y-81200000D01*
X139502937Y-79502938D02*
X139287044Y-79287044D01*
X139287044Y-74737044D02*
X138625789Y-74737044D01*
X145160000Y-77240000D02*
X144900000Y-77500000D01*
X138625789Y-77737044D02*
X138987044Y-77737044D01*
X141200000Y-80775735D02*
X141455445Y-80520289D01*
X144051470Y-78348527D02*
X144051471Y-78348528D01*
X140182647Y-79247492D02*
X140182647Y-79247493D01*
X142696025Y-80168818D02*
X142951470Y-80424263D01*
X138987044Y-77737044D02*
X139948299Y-77737044D01*
X140671234Y-68871235D02*
X140671235Y-68871235D01*
X139748299Y-73537044D02*
X139287044Y-73537044D01*
X142951471Y-80848528D02*
X142600000Y-81200000D01*
X139898299Y-75937044D02*
X139287044Y-75937044D01*
X138625789Y-75337044D02*
X139287044Y-75337044D01*
X139287044Y-76537044D02*
X139898299Y-76537044D01*
X138625789Y-76537044D02*
X139287044Y-76537044D01*
X138625789Y-76536989D02*
G75*
G03*
X138325789Y-76837044I11J-300011D01*
G01*
X138325756Y-78037044D02*
G75*
G03*
X138625789Y-78337044I300044J44D01*
G01*
X139748299Y-75336999D02*
G75*
G03*
X140048299Y-75037044I1J299999D01*
G01*
X140671234Y-68871269D02*
G75*
G03*
X140542469Y-69000000I-34J-128731D01*
G01*
X138325756Y-73237044D02*
G75*
G03*
X138625789Y-73537044I300044J44D01*
G01*
X143902140Y-77350669D02*
G75*
G03*
X143902092Y-77774883I212060J-212131D01*
G01*
X138325756Y-74437044D02*
G75*
G03*
X138625789Y-74737044I300044J44D01*
G01*
X139286956Y-72037044D02*
G75*
G03*
X139587044Y-72337044I300044J44D01*
G01*
X143120288Y-79744555D02*
G75*
G03*
X142696026Y-79744555I-212131J-212131D01*
G01*
X139671714Y-80606869D02*
G75*
G03*
X139671760Y-81031177I212186J-212131D01*
G01*
X144475734Y-77500000D02*
G75*
G03*
X144900000Y-77500000I212133J212134D01*
G01*
X139671760Y-81031177D02*
G75*
G03*
X140096022Y-81031177I212131J212131D01*
G01*
X139948299Y-77736999D02*
G75*
G03*
X140248299Y-77437044I1J299999D01*
G01*
X138325756Y-76837044D02*
G75*
G03*
X138625789Y-77137044I300044J44D01*
G01*
X139286956Y-78637044D02*
G75*
G03*
X138987044Y-78337044I-299956J44D01*
G01*
X140606887Y-79671732D02*
G75*
G03*
X140606912Y-79247493I-212087J212132D01*
G01*
X140048256Y-73837044D02*
G75*
G03*
X139748299Y-73537044I-299956J44D01*
G01*
X139898299Y-76536999D02*
G75*
G03*
X140198299Y-76237044I1J299999D01*
G01*
X140248256Y-77437044D02*
G75*
G03*
X139948299Y-77137044I-299956J44D01*
G01*
X138625789Y-75336989D02*
G75*
G03*
X138325789Y-75637044I11J-300011D01*
G01*
X142696039Y-79744568D02*
G75*
G03*
X142696025Y-80168818I212161J-212132D01*
G01*
X140048256Y-72637044D02*
G75*
G03*
X139748299Y-72337044I-299956J44D01*
G01*
X138625789Y-72936989D02*
G75*
G03*
X138325789Y-73237044I11J-300011D01*
G01*
X140198256Y-76237044D02*
G75*
G03*
X139898299Y-75937044I-299956J44D01*
G01*
X141455433Y-80096037D02*
G75*
G03*
X141031180Y-80096024I-212133J-212163D01*
G01*
X140606932Y-79247473D02*
G75*
G03*
X140182648Y-79247493I-212132J-212127D01*
G01*
X141455488Y-80520332D02*
G75*
G03*
X141455445Y-80096025I-212188J212132D01*
G01*
X138325756Y-75637044D02*
G75*
G03*
X138625789Y-75937044I300044J44D01*
G01*
X140799965Y-69600000D02*
G75*
G03*
X140671235Y-69471235I-128765J0D01*
G01*
X144326354Y-77350621D02*
G75*
G03*
X143902092Y-77350621I-212131J-212131D01*
G01*
X140671235Y-68871300D02*
G75*
G03*
X140800000Y-68742470I-35J128800D01*
G01*
X139748299Y-72936999D02*
G75*
G03*
X140048299Y-72637044I1J299999D01*
G01*
X139502938Y-79502937D02*
G75*
G03*
X139927200Y-79502937I212131J212131D01*
G01*
X141200032Y-80775769D02*
G75*
G03*
X141200000Y-81200000I212068J-212131D01*
G01*
X140048256Y-75037044D02*
G75*
G03*
X139748299Y-74737044I-299956J44D01*
G01*
X144051475Y-78348532D02*
G75*
G03*
X144051470Y-77924263I-212175J212132D01*
G01*
X140542465Y-69342470D02*
G75*
G03*
X140671234Y-69471235I128735J-30D01*
G01*
X138625789Y-74136989D02*
G75*
G03*
X138325789Y-74437044I11J-300011D01*
G01*
X142951475Y-80848532D02*
G75*
G03*
X142951470Y-80424263I-212175J212132D01*
G01*
X138625789Y-77736989D02*
G75*
G03*
X138325789Y-78037044I11J-300011D01*
G01*
X143375734Y-80000000D02*
G75*
G03*
X143800000Y-80000000I212133J212134D01*
G01*
X139748299Y-74136999D02*
G75*
G03*
X140048299Y-73837044I1J299999D01*
G01*
%TO.N,/P3*%
X147230330Y-63430330D02*
X147225463Y-63425462D01*
X150400000Y-73850000D02*
X149863766Y-73850000D01*
X150536234Y-73181883D02*
X150536234Y-72718117D01*
X150400000Y-73250000D02*
X150468117Y-73250000D01*
X150468117Y-71450000D02*
X150400000Y-71450000D01*
X146600000Y-62800000D02*
X146600000Y-59600000D01*
X146600000Y-59600000D02*
X146400000Y-59400000D01*
X150400000Y-69050000D02*
X150331883Y-69050000D01*
X150400000Y-70850000D02*
X150468117Y-70850000D01*
X150263766Y-68981883D02*
X150263766Y-68518117D01*
X149563776Y-66188040D02*
X149290668Y-66461149D01*
X150468117Y-70250000D02*
X150400000Y-70250000D01*
X150400000Y-74450000D02*
X150468117Y-74450000D01*
X147644859Y-63015798D02*
X147230330Y-63430330D01*
X148422674Y-63935035D02*
X147995335Y-64362377D01*
X149127381Y-64927381D02*
X148455636Y-65599126D01*
X150400000Y-76850000D02*
X150468117Y-76850000D01*
X150468117Y-72650000D02*
X150400000Y-72650000D01*
X150400000Y-66950000D02*
X150400000Y-66600000D01*
X147571071Y-63938114D02*
X148069125Y-63440064D01*
X150063766Y-67250000D02*
X150100000Y-67250000D01*
X148455636Y-65599126D02*
X148442143Y-65612622D01*
X147995335Y-64362377D02*
X147995334Y-64362377D01*
X150536234Y-70781883D02*
X150536234Y-70318117D01*
X148866404Y-66036885D02*
X149695466Y-65207827D01*
X150400000Y-72650000D02*
X149963766Y-72650000D01*
X150400000Y-78200000D02*
X150400000Y-77750000D01*
X149290668Y-66461149D02*
X149290669Y-66461148D01*
X150536234Y-76781883D02*
X150536234Y-76318117D01*
X150100000Y-67850000D02*
X150063766Y-67850000D01*
X150400000Y-75650000D02*
X150468117Y-75650000D01*
X149963766Y-76850000D02*
X150400000Y-76850000D01*
X150468117Y-67850000D02*
X150100000Y-67850000D01*
X147571071Y-64105156D02*
X147571072Y-64105157D01*
X149963766Y-74450000D02*
X150400000Y-74450000D01*
X148017878Y-65188359D02*
X148846940Y-64359301D01*
X149813766Y-75650000D02*
X150400000Y-75650000D01*
X150468117Y-73850000D02*
X150400000Y-73850000D01*
X150400000Y-69650000D02*
X150468117Y-69650000D01*
X150400000Y-68450000D02*
X150468117Y-68450000D01*
X148820000Y-79780000D02*
X150400000Y-78200000D01*
X141600000Y-59400000D02*
X141100000Y-59900000D01*
X150536234Y-75581883D02*
X150536234Y-75118117D01*
X150400000Y-75050000D02*
X149963766Y-75050000D01*
X150468117Y-75050000D02*
X150400000Y-75050000D01*
X150400000Y-70250000D02*
X150331883Y-70250000D01*
X149963766Y-72050000D02*
X150400000Y-72050000D01*
X147828292Y-64362377D02*
X147571071Y-64105156D01*
X146640000Y-79780000D02*
X148820000Y-79780000D01*
X150536234Y-69581883D02*
X150536234Y-69118117D01*
X150100000Y-77450000D02*
X149963766Y-77450000D01*
X149271200Y-64783561D02*
X149127381Y-64927381D01*
X150468117Y-69050000D02*
X150400000Y-69050000D01*
X146700000Y-62900000D02*
X146600000Y-62800000D01*
X149863766Y-73250000D02*
X150400000Y-73250000D01*
X150536234Y-68381883D02*
X150536234Y-67918117D01*
X150400000Y-66600000D02*
X149988040Y-66188040D01*
X150263766Y-70181883D02*
X150263766Y-69718117D01*
X150400000Y-76250000D02*
X149813766Y-76250000D01*
X150468117Y-76250000D02*
X150400000Y-76250000D01*
X146400000Y-59400000D02*
X141600000Y-59400000D01*
X146921866Y-63526662D02*
X146700000Y-63304796D01*
X148846940Y-64359301D02*
X148846939Y-64359302D01*
X150400000Y-71450000D02*
X150331883Y-71450000D01*
X150331883Y-68450000D02*
X150400000Y-68450000D01*
X150263766Y-71381883D02*
X150263766Y-70918117D01*
X150331883Y-70850000D02*
X150400000Y-70850000D01*
X146700000Y-63102398D02*
X146699999Y-63102399D01*
X147225463Y-63425462D02*
X147124264Y-63526662D01*
X148069125Y-63440064D02*
X148069124Y-63440065D01*
X150536234Y-74381883D02*
X150536234Y-73918117D01*
X150331883Y-69650000D02*
X150400000Y-69650000D01*
X141100000Y-59900000D02*
X141100000Y-60850000D01*
X150536234Y-71981883D02*
X150536234Y-71518117D01*
X150400000Y-72050000D02*
X150468117Y-72050000D01*
X149695466Y-65207827D02*
X149695465Y-65207828D01*
X148017868Y-65612633D02*
G75*
G03*
X148442143Y-65612622I212132J212133D01*
G01*
X146700000Y-63102400D02*
G75*
G03*
X146700000Y-62900000I-101200J101200D01*
G01*
X150536200Y-72718117D02*
G75*
G03*
X150468117Y-72650000I-68100J17D01*
G01*
X150331883Y-69649966D02*
G75*
G03*
X150263766Y-69718117I17J-68134D01*
G01*
X150468117Y-70850034D02*
G75*
G03*
X150536234Y-70781883I-17J68134D01*
G01*
X150468117Y-75650034D02*
G75*
G03*
X150536234Y-75581883I-17J68134D01*
G01*
X147571037Y-63938080D02*
G75*
G03*
X147571073Y-64105156I83563J-83520D01*
G01*
X149663800Y-74750000D02*
G75*
G03*
X149963766Y-75050000I300000J0D01*
G01*
X150536200Y-76318117D02*
G75*
G03*
X150468117Y-76250000I-68100J17D01*
G01*
X150063766Y-67249966D02*
G75*
G03*
X149763766Y-67550000I34J-300034D01*
G01*
X149988039Y-66188041D02*
G75*
G03*
X149563777Y-66188041I-212131J-212131D01*
G01*
X150468117Y-68450034D02*
G75*
G03*
X150536234Y-68381883I-17J68134D01*
G01*
X148017887Y-65188368D02*
G75*
G03*
X148017878Y-65612623I212113J-212132D01*
G01*
X147828292Y-64362377D02*
G75*
G03*
X147995334Y-64362377I83521J83519D01*
G01*
X150468117Y-73250034D02*
G75*
G03*
X150536234Y-73181883I-17J68134D01*
G01*
X149513800Y-75950000D02*
G75*
G03*
X149813766Y-76250000I300000J0D01*
G01*
X150536200Y-70318117D02*
G75*
G03*
X150468117Y-70250000I-68100J17D01*
G01*
X149963766Y-72049966D02*
G75*
G03*
X149663766Y-72350000I34J-300034D01*
G01*
X150536200Y-71518117D02*
G75*
G03*
X150468117Y-71450000I-68100J17D01*
G01*
X148866387Y-66036868D02*
G75*
G03*
X148866404Y-66461149I212113J-212132D01*
G01*
X150536200Y-67918117D02*
G75*
G03*
X150468117Y-67850000I-68100J17D01*
G01*
X148846970Y-64359333D02*
G75*
G03*
X148846940Y-63935037I-212170J212133D01*
G01*
X150100000Y-67250000D02*
G75*
G03*
X150400000Y-66950000I0J300000D01*
G01*
X148846934Y-63935043D02*
G75*
G03*
X148422674Y-63935035I-212134J-212157D01*
G01*
X149563800Y-73550000D02*
G75*
G03*
X149863766Y-73850000I300000J0D01*
G01*
X149663800Y-72350000D02*
G75*
G03*
X149963766Y-72650000I300000J0D01*
G01*
X150263800Y-71381883D02*
G75*
G03*
X150331883Y-71450000I68100J-17D01*
G01*
X150468117Y-76850034D02*
G75*
G03*
X150536234Y-76781883I-17J68134D01*
G01*
X149695470Y-65207833D02*
G75*
G03*
X149695466Y-64783563I-212170J212133D01*
G01*
X150331883Y-68449966D02*
G75*
G03*
X150263766Y-68518117I17J-68134D01*
G01*
X150331883Y-70849966D02*
G75*
G03*
X150263766Y-70918117I17J-68134D01*
G01*
X148866368Y-66461185D02*
G75*
G03*
X149290669Y-66461148I212132J212185D01*
G01*
X146921867Y-63526661D02*
G75*
G03*
X147124263Y-63526661I101198J101198D01*
G01*
X149863766Y-73249966D02*
G75*
G03*
X149563766Y-73550000I34J-300034D01*
G01*
X150468117Y-74450034D02*
G75*
G03*
X150536234Y-74381883I-17J68134D01*
G01*
X149695434Y-64783595D02*
G75*
G03*
X149271200Y-64783561I-212134J-212105D01*
G01*
X149763800Y-67550000D02*
G75*
G03*
X150063766Y-67850000I300000J0D01*
G01*
X149663800Y-77150000D02*
G75*
G03*
X149963766Y-77450000I300000J0D01*
G01*
X146700003Y-63102401D02*
G75*
G03*
X146700000Y-63304796I101197J-101199D01*
G01*
X150263800Y-70181883D02*
G75*
G03*
X150331883Y-70250000I68100J-17D01*
G01*
X150536200Y-75118117D02*
G75*
G03*
X150468117Y-75050000I-68100J17D01*
G01*
X150400000Y-77750000D02*
G75*
G03*
X150100000Y-77450000I-300000J0D01*
G01*
X150468117Y-69650034D02*
G75*
G03*
X150536234Y-69581883I-17J68134D01*
G01*
X148069134Y-63015791D02*
G75*
G03*
X147644859Y-63015798I-212134J-212109D01*
G01*
X150263800Y-68981883D02*
G75*
G03*
X150331883Y-69050000I68100J-17D01*
G01*
X149963766Y-76849966D02*
G75*
G03*
X149663766Y-77150000I34J-300034D01*
G01*
X150468117Y-72050034D02*
G75*
G03*
X150536234Y-71981883I-17J68134D01*
G01*
X149813766Y-75649966D02*
G75*
G03*
X149513766Y-75950000I34J-300034D01*
G01*
X149963766Y-74449966D02*
G75*
G03*
X149663766Y-74750000I34J-300034D01*
G01*
X150536200Y-69118117D02*
G75*
G03*
X150468117Y-69050000I-68100J17D01*
G01*
X150536200Y-73918117D02*
G75*
G03*
X150468117Y-73850000I-68100J17D01*
G01*
X148069092Y-63440033D02*
G75*
G03*
X148069125Y-63015800I-212092J212133D01*
G01*
%TO.N,/P0*%
X140736933Y-75250000D02*
X142063067Y-75250000D01*
X143998093Y-69620000D02*
X143980000Y-69620000D01*
X143500000Y-76500000D02*
X143500000Y-76236933D01*
X143536933Y-73500000D02*
X144863067Y-73500000D01*
X143798093Y-69983814D02*
X143561907Y-69983814D01*
X144416186Y-69256186D02*
X144180000Y-69256186D01*
X144200000Y-71000000D02*
X144200000Y-71400000D01*
X141100000Y-75850000D02*
X140736933Y-75850000D01*
X141400000Y-76400000D02*
X141400000Y-76150000D01*
X141400000Y-71950000D02*
X141400000Y-69659955D01*
X142780000Y-69620000D02*
X142600000Y-69800000D01*
X144000000Y-70800000D02*
X144200000Y-71000000D01*
X142000000Y-76800000D02*
X141800000Y-76800000D01*
X142600000Y-70600000D02*
X142800000Y-70800000D01*
X140736933Y-74050000D02*
X142063067Y-74050000D01*
X141400000Y-63725000D02*
X141400000Y-65800000D01*
X140736933Y-72850000D02*
X142063067Y-72850000D01*
X143998093Y-69438093D02*
X143998093Y-69620000D01*
X143198093Y-69620000D02*
X142780000Y-69620000D01*
X142600000Y-69800000D02*
X142600000Y-70600000D01*
X144863067Y-72900000D02*
X143536933Y-72900000D01*
X144863067Y-74100000D02*
X143536933Y-74100000D01*
X143900000Y-71700000D02*
X143536933Y-71700000D01*
X142900000Y-76236933D02*
X142900000Y-77463067D01*
X142063067Y-72250000D02*
X141700000Y-72250000D01*
X144200000Y-75600000D02*
X144200000Y-76400000D01*
X141800000Y-76800000D02*
X141400000Y-76400000D01*
X144863067Y-75300000D02*
X144500000Y-75300000D01*
X146640000Y-69620000D02*
X144780000Y-69620000D01*
X143536933Y-74700000D02*
X144863067Y-74700000D01*
X142800000Y-70800000D02*
X144000000Y-70800000D01*
X143536933Y-72300000D02*
X144863067Y-72300000D01*
X142063067Y-73450000D02*
X140736933Y-73450000D01*
X141400000Y-69659955D02*
X141400000Y-65800000D01*
X143980000Y-69620000D02*
X143980000Y-69801907D01*
X142300000Y-77463067D02*
X142300000Y-77100000D01*
X142063067Y-74650000D02*
X140736933Y-74650000D01*
X144200000Y-76400000D02*
X143800000Y-76800000D01*
X140436900Y-75550000D02*
G75*
G03*
X140736933Y-75850000I300000J0D01*
G01*
X143798093Y-69983800D02*
G75*
G03*
X143980000Y-69801907I7J181900D01*
G01*
X142300000Y-77100000D02*
G75*
G03*
X142000000Y-76800000I-300000J0D01*
G01*
X142363100Y-72550000D02*
G75*
G03*
X142063067Y-72250000I-300000J0D01*
G01*
X140736933Y-72850033D02*
G75*
G03*
X140436933Y-73150000I-33J-299967D01*
G01*
X140436900Y-73150000D02*
G75*
G03*
X140736933Y-73450000I300000J0D01*
G01*
X145163100Y-73800000D02*
G75*
G03*
X144863067Y-73500000I-300000J0D01*
G01*
X143379986Y-69801907D02*
G75*
G03*
X143561907Y-69983814I181914J7D01*
G01*
X143200000Y-75936900D02*
G75*
G03*
X142900000Y-76236933I0J-300000D01*
G01*
X141400000Y-71950000D02*
G75*
G03*
X141700000Y-72250000I300000J0D01*
G01*
X143236900Y-74400000D02*
G75*
G03*
X143536933Y-74700000I300000J0D01*
G01*
X143900000Y-71700000D02*
G75*
G03*
X144200000Y-71400000I0J300000D01*
G01*
X143236900Y-73200000D02*
G75*
G03*
X143536933Y-73500000I300000J0D01*
G01*
X141400000Y-76150000D02*
G75*
G03*
X141100000Y-75850000I-300000J0D01*
G01*
X145163100Y-75000000D02*
G75*
G03*
X144863067Y-74700000I-300000J0D01*
G01*
X143536933Y-71700033D02*
G75*
G03*
X143236933Y-72000000I-33J-299967D01*
G01*
X143236900Y-72000000D02*
G75*
G03*
X143536933Y-72300000I300000J0D01*
G01*
X142063067Y-74049967D02*
G75*
G03*
X142363067Y-73750000I33J299967D01*
G01*
X144180000Y-69256193D02*
G75*
G03*
X143998093Y-69438093I0J-181907D01*
G01*
X143499967Y-76236933D02*
G75*
G03*
X143200000Y-75936933I-299967J33D01*
G01*
X142063067Y-75249967D02*
G75*
G03*
X142363067Y-74950000I33J299967D01*
G01*
X142600000Y-77763100D02*
G75*
G03*
X142900000Y-77463067I0J300000D01*
G01*
X142363100Y-74950000D02*
G75*
G03*
X142063067Y-74650000I-300000J0D01*
G01*
X145163100Y-72600000D02*
G75*
G03*
X144863067Y-72300000I-300000J0D01*
G01*
X144863067Y-75299967D02*
G75*
G03*
X145163067Y-75000000I33J299967D01*
G01*
X143536933Y-74100033D02*
G75*
G03*
X143236933Y-74400000I-33J-299967D01*
G01*
X144598100Y-69438093D02*
G75*
G03*
X144780000Y-69620000I181900J-7D01*
G01*
X142063067Y-72849967D02*
G75*
G03*
X142363067Y-72550000I33J299967D01*
G01*
X140436900Y-74350000D02*
G75*
G03*
X140736933Y-74650000I300000J0D01*
G01*
X142363100Y-73750000D02*
G75*
G03*
X142063067Y-73450000I-300000J0D01*
G01*
X144500000Y-75300000D02*
G75*
G03*
X144200000Y-75600000I0J-300000D01*
G01*
X144598114Y-69438093D02*
G75*
G03*
X144416186Y-69256186I-181914J-7D01*
G01*
X144863067Y-74099967D02*
G75*
G03*
X145163067Y-73800000I33J299967D01*
G01*
X140736933Y-74050033D02*
G75*
G03*
X140436933Y-74350000I-33J-299967D01*
G01*
X143380000Y-69801907D02*
G75*
G03*
X143198093Y-69620000I-181900J7D01*
G01*
X143500000Y-76500000D02*
G75*
G03*
X143800000Y-76800000I300000J0D01*
G01*
X144863067Y-72899967D02*
G75*
G03*
X145163067Y-72600000I33J299967D01*
G01*
X143536933Y-72900033D02*
G75*
G03*
X143236933Y-73200000I-33J-299967D01*
G01*
X142300033Y-77463067D02*
G75*
G03*
X142600000Y-77763067I299967J-33D01*
G01*
X140736933Y-75250033D02*
G75*
G03*
X140436933Y-75550000I-33J-299967D01*
G01*
%TO.N,/P1*%
X143400000Y-62400000D02*
X143800000Y-62800000D01*
X145600000Y-64400000D02*
X146000000Y-64000000D01*
X143800000Y-62800000D02*
X145600000Y-62800000D01*
X143950000Y-66700000D02*
X143800000Y-66700000D01*
X144600000Y-67000000D02*
X144250000Y-67000000D01*
X149800000Y-71400000D02*
X149040000Y-72160000D01*
X145300000Y-64850000D02*
X145300000Y-64700000D01*
X143850000Y-67900000D02*
X144000000Y-67900000D01*
X143800000Y-62000000D02*
X143400000Y-62400000D01*
X146000000Y-60800000D02*
X146000000Y-61400000D01*
X142600000Y-67000000D02*
X142400000Y-67200000D01*
X147200000Y-64400000D02*
X147200000Y-64650000D01*
X143050000Y-66700000D02*
X142900000Y-66700000D01*
X146900000Y-64950000D02*
X146900000Y-65100000D01*
X146000000Y-64000000D02*
X146800000Y-64000000D01*
X149800000Y-68400000D02*
X149800000Y-71400000D01*
X143600000Y-65850000D02*
X143850000Y-66100000D01*
X145750000Y-66800000D02*
X145450000Y-66800000D01*
X147975000Y-67075000D02*
X147425000Y-67075000D01*
X144600000Y-65800000D02*
X144800000Y-66000000D01*
X145200000Y-60000000D02*
X146000000Y-60800000D01*
X147200000Y-67300000D02*
X147200000Y-67600000D01*
X143650000Y-66850000D02*
X143650000Y-67150000D01*
X143200000Y-67150000D02*
X143200000Y-66850000D01*
X145300000Y-65750000D02*
X145300000Y-65600000D01*
X141700000Y-60850000D02*
X141700000Y-60300000D01*
X142400000Y-67200000D02*
X142400000Y-67800000D01*
X144150000Y-65500000D02*
X144300000Y-65500000D01*
X143500000Y-67300000D02*
X143350000Y-67300000D01*
X141700000Y-60300000D02*
X142000000Y-60000000D01*
X145400000Y-62000000D02*
X143800000Y-62000000D01*
X149040000Y-72160000D02*
X146640000Y-72160000D01*
X143600000Y-65000000D02*
X143600000Y-65850000D01*
X145200000Y-68200000D02*
X145600000Y-67800000D01*
X145450000Y-66350000D02*
X145750000Y-66350000D01*
X144600000Y-64600000D02*
X144000000Y-64600000D01*
X144600000Y-68350000D02*
X144600000Y-68050000D01*
X147200000Y-65400000D02*
X147200000Y-66400000D01*
X145600000Y-62800000D02*
X146000000Y-63200000D01*
X144300000Y-68500000D02*
X144450000Y-68500000D01*
X144750000Y-67900000D02*
X144900000Y-67900000D01*
X145450000Y-65450000D02*
X145750000Y-65450000D01*
X147200000Y-67600000D02*
X147600000Y-68000000D01*
X146000000Y-63200000D02*
X144600000Y-64600000D01*
X144000000Y-65950000D02*
X144000000Y-65650000D01*
X142000000Y-60000000D02*
X145200000Y-60000000D01*
X147425000Y-66625000D02*
X147975000Y-66625000D01*
X142400000Y-67800000D02*
X142800000Y-68200000D01*
X149400000Y-68000000D02*
X149800000Y-68400000D01*
X145300000Y-66650000D02*
X145300000Y-66500000D01*
X145600000Y-67800000D02*
X145600000Y-67400000D01*
X145900000Y-67100000D02*
X145900000Y-66950000D01*
X147800000Y-67800000D02*
X148050000Y-67800000D01*
X145750000Y-65000000D02*
X145450000Y-65000000D01*
X145750000Y-65900000D02*
X145450000Y-65900000D01*
X145900000Y-65300000D02*
X145900000Y-65150000D01*
X144150000Y-68050000D02*
X144150000Y-68350000D01*
X144800000Y-66800000D02*
X144600000Y-67000000D01*
X146800000Y-64000000D02*
X147200000Y-64400000D01*
X148250000Y-68000000D02*
X149400000Y-68000000D01*
X146000000Y-61400000D02*
X145400000Y-62000000D01*
X144800000Y-66000000D02*
X144800000Y-66800000D01*
X144000000Y-64600000D02*
X143600000Y-65000000D01*
X142800000Y-68200000D02*
X143550000Y-68200000D01*
X145900000Y-66200000D02*
X145900000Y-66050000D01*
X145450000Y-64550000D02*
G75*
G03*
X145300000Y-64700000I0J-150000D01*
G01*
X145750000Y-67250000D02*
G75*
G03*
X145900000Y-67100000I0J150000D01*
G01*
X143500000Y-67300000D02*
G75*
G03*
X143650000Y-67150000I0J150000D01*
G01*
X148150000Y-67900000D02*
G75*
G03*
X148250000Y-68000000I100000J0D01*
G01*
X145050000Y-68050000D02*
G75*
G03*
X144900000Y-67900000I-150000J0D01*
G01*
X145450000Y-64550000D02*
G75*
G03*
X145600000Y-64400000I0J150000D01*
G01*
X148200000Y-66850000D02*
G75*
G03*
X147975000Y-66625000I-225000J0D01*
G01*
X147975000Y-67075000D02*
G75*
G03*
X148200000Y-66850000I0J225000D01*
G01*
X147200000Y-66400000D02*
G75*
G03*
X147425000Y-66625000I225000J0D01*
G01*
X148150000Y-67900000D02*
G75*
G03*
X148050000Y-67800000I-100000J0D01*
G01*
X144750000Y-67900000D02*
G75*
G03*
X144600000Y-68050000I0J-150000D01*
G01*
X143200000Y-67150000D02*
G75*
G03*
X143350000Y-67300000I150000J0D01*
G01*
X143800000Y-66700000D02*
G75*
G03*
X143650000Y-66850000I0J-150000D01*
G01*
X147425000Y-67075000D02*
G75*
G03*
X147200000Y-67300000I0J-225000D01*
G01*
X145450000Y-66350000D02*
G75*
G03*
X145300000Y-66500000I0J-150000D01*
G01*
X145300000Y-65750000D02*
G75*
G03*
X145450000Y-65900000I150000J0D01*
G01*
X144450000Y-68500000D02*
G75*
G03*
X144600000Y-68350000I0J150000D01*
G01*
X145750000Y-67250000D02*
G75*
G03*
X145600000Y-67400000I0J-150000D01*
G01*
X144100000Y-66850000D02*
G75*
G03*
X144250000Y-67000000I150000J0D01*
G01*
X145900000Y-66050000D02*
G75*
G03*
X145750000Y-65900000I-150000J0D01*
G01*
X147200000Y-65400000D02*
G75*
G03*
X147050000Y-65250000I-150000J0D01*
G01*
X147050000Y-64800000D02*
G75*
G03*
X146900000Y-64950000I0J-150000D01*
G01*
X144150000Y-68050000D02*
G75*
G03*
X144000000Y-67900000I-150000J0D01*
G01*
X145050000Y-68050000D02*
G75*
G03*
X145200000Y-68200000I150000J0D01*
G01*
X145750000Y-66350000D02*
G75*
G03*
X145900000Y-66200000I0J150000D01*
G01*
X145300000Y-64850000D02*
G75*
G03*
X145450000Y-65000000I150000J0D01*
G01*
X146900000Y-65100000D02*
G75*
G03*
X147050000Y-65250000I150000J0D01*
G01*
X143550000Y-68200000D02*
G75*
G03*
X143700000Y-68050000I0J150000D01*
G01*
X144150000Y-68350000D02*
G75*
G03*
X144300000Y-68500000I150000J0D01*
G01*
X144100000Y-66850000D02*
G75*
G03*
X143950000Y-66700000I-150000J0D01*
G01*
X142600000Y-67000000D02*
G75*
G03*
X142750000Y-66850000I0J150000D01*
G01*
X142900000Y-66700000D02*
G75*
G03*
X142750000Y-66850000I0J-150000D01*
G01*
X145900000Y-66950000D02*
G75*
G03*
X145750000Y-66800000I-150000J0D01*
G01*
X144450000Y-65650000D02*
G75*
G03*
X144600000Y-65800000I150000J0D01*
G01*
X145750000Y-65450000D02*
G75*
G03*
X145900000Y-65300000I0J150000D01*
G01*
X145450000Y-65450000D02*
G75*
G03*
X145300000Y-65600000I0J-150000D01*
G01*
X144150000Y-65500000D02*
G75*
G03*
X144000000Y-65650000I0J-150000D01*
G01*
X145300000Y-66650000D02*
G75*
G03*
X145450000Y-66800000I150000J0D01*
G01*
X147600000Y-68000000D02*
G75*
G03*
X147700000Y-67900000I0J100000D01*
G01*
X145900000Y-65150000D02*
G75*
G03*
X145750000Y-65000000I-150000J0D01*
G01*
X143200000Y-66850000D02*
G75*
G03*
X143050000Y-66700000I-150000J0D01*
G01*
X143850000Y-66100000D02*
G75*
G03*
X144000000Y-65950000I0J150000D01*
G01*
X143850000Y-67900000D02*
G75*
G03*
X143700000Y-68050000I0J-150000D01*
G01*
X147050000Y-64800000D02*
G75*
G03*
X147200000Y-64650000I0J150000D01*
G01*
X144450000Y-65650000D02*
G75*
G03*
X144300000Y-65500000I-150000J0D01*
G01*
X147800000Y-67800000D02*
G75*
G03*
X147700000Y-67900000I0J-100000D01*
G01*
%TO.N,/Hsync*%
X123480000Y-79780000D02*
X123480000Y-79156563D01*
X128171230Y-61928045D02*
X128299275Y-61800000D01*
X122580000Y-79780000D02*
X121980000Y-79780000D01*
X124680000Y-79480000D02*
X124680000Y-79156563D01*
X121400000Y-65400000D02*
X124871955Y-61928045D01*
X121400000Y-79200000D02*
X121400000Y-65400000D01*
X123480000Y-80403437D02*
X123480000Y-79780000D01*
X121980000Y-79780000D02*
X121400000Y-79200000D01*
X124080000Y-79480000D02*
X124080000Y-80403437D01*
X122880000Y-79156563D02*
X122880000Y-79480000D01*
X128860000Y-79780000D02*
X124980000Y-79780000D01*
X142286874Y-61460245D02*
X142286874Y-60863126D01*
X124871955Y-61928045D02*
X128171230Y-61928045D01*
X124080000Y-79156563D02*
X124080000Y-79480000D01*
X128299275Y-61800000D02*
X141947119Y-61800000D01*
X141947119Y-61800000D02*
X142286874Y-61460245D01*
X142286874Y-60863126D02*
X142300000Y-60850000D01*
X123480037Y-79156563D02*
G75*
G03*
X123180000Y-78856563I-300037J-37D01*
G01*
X124680000Y-79480000D02*
G75*
G03*
X124980000Y-79780000I300000J0D01*
G01*
X123479963Y-80403437D02*
G75*
G03*
X123780000Y-80703437I300037J37D01*
G01*
X123780000Y-80703400D02*
G75*
G03*
X124080000Y-80403437I0J300000D01*
G01*
X124380000Y-78856600D02*
G75*
G03*
X124080000Y-79156563I0J-300000D01*
G01*
X122580000Y-79780000D02*
G75*
G03*
X122880000Y-79480000I0J300000D01*
G01*
X124680037Y-79156563D02*
G75*
G03*
X124380000Y-78856563I-300037J-37D01*
G01*
X123180000Y-78856600D02*
G75*
G03*
X122880000Y-79156563I0J-300000D01*
G01*
%TO.N,/Vsync*%
X126525727Y-65382229D02*
X126525728Y-65382229D01*
X125200000Y-67500000D02*
X125824866Y-67500000D01*
X125200000Y-66900000D02*
X124575134Y-66900000D01*
X127600000Y-63000000D02*
X142290651Y-63000000D01*
X124400000Y-71000000D02*
X125200000Y-70200000D01*
X125600000Y-75600000D02*
X125300000Y-75900000D01*
X125200000Y-69312567D02*
X125200000Y-69300000D01*
X125824866Y-66900000D02*
X125200000Y-66900000D01*
X124575134Y-66300000D02*
X124900000Y-66300000D01*
X125200000Y-65400000D02*
X125447485Y-65152515D01*
X124575134Y-68700000D02*
X125200000Y-68700000D01*
X125600000Y-73600000D02*
X125600000Y-75600000D01*
X125774866Y-69625134D02*
X125774866Y-69600000D01*
X124400000Y-71400000D02*
X124400000Y-71350000D01*
X125624866Y-68100000D02*
X125200000Y-68100000D01*
X127144544Y-63455453D02*
X127600000Y-63000000D01*
X125200000Y-69300000D02*
X124575134Y-69300000D01*
X126525728Y-64957963D02*
X126525728Y-64957964D01*
X126446324Y-64030029D02*
X126949994Y-64533698D01*
X124900000Y-75900000D02*
X124400000Y-75400000D01*
X124575134Y-67500000D02*
X125200000Y-67500000D01*
X125871749Y-65152515D02*
X126101463Y-65382229D01*
X128860000Y-72160000D02*
X127040000Y-72160000D01*
X142600000Y-63309349D02*
X142600000Y-63725000D01*
X125200000Y-68100000D02*
X124575134Y-68100000D01*
X124400000Y-71350000D02*
X124400000Y-71000000D01*
X124700000Y-72300000D02*
X125024866Y-72300000D01*
X126525728Y-64957964D02*
X126022058Y-64454294D01*
X125024866Y-71700000D02*
X124700000Y-71700000D01*
X126022058Y-64330646D02*
X126022059Y-64330644D01*
X124400000Y-75400000D02*
X124400000Y-72600000D01*
X125200000Y-66000000D02*
X125200000Y-65400000D01*
X127374259Y-64109432D02*
X127374259Y-64109433D01*
X127144544Y-63455454D02*
X127144544Y-63455453D01*
X126022059Y-64330644D02*
X126322674Y-64030030D01*
X127040000Y-72160000D02*
X125600000Y-73600000D01*
X125200000Y-68700000D02*
X125624866Y-68700000D01*
X127374259Y-64109433D02*
X127144544Y-63879718D01*
X127374259Y-64533699D02*
X127374259Y-64533698D01*
X126446323Y-64030031D02*
X126446324Y-64030029D01*
X125487433Y-69312567D02*
X125200000Y-69312567D01*
X125300000Y-75900000D02*
X124900000Y-75900000D01*
X142290651Y-63000000D02*
X142600000Y-63309349D01*
X126446325Y-64030029D02*
G75*
G03*
X126322674Y-64030030I-61825J-61871D01*
G01*
X125774833Y-69600000D02*
G75*
G03*
X125487433Y-69312567I-287433J0D01*
G01*
X125324900Y-72000000D02*
G75*
G03*
X125024866Y-71700000I-300000J0D01*
G01*
X125824866Y-67499966D02*
G75*
G03*
X126124866Y-67200000I34J299966D01*
G01*
X127144558Y-63455468D02*
G75*
G03*
X127144544Y-63879718I212142J-212132D01*
G01*
X125624866Y-68699966D02*
G75*
G03*
X125924866Y-68400000I34J299966D01*
G01*
X124575134Y-68700034D02*
G75*
G03*
X124275134Y-69000000I-34J-299966D01*
G01*
X126101464Y-65382228D02*
G75*
G03*
X126525726Y-65382228I212131J212131D01*
G01*
X125487433Y-69912566D02*
G75*
G03*
X125774866Y-69625134I-33J287466D01*
G01*
X124275100Y-66600000D02*
G75*
G03*
X124575134Y-66900000I300000J0D01*
G01*
X126124900Y-67200000D02*
G75*
G03*
X125824866Y-66900000I-300000J0D01*
G01*
X124275100Y-69000000D02*
G75*
G03*
X124575134Y-69300000I300000J0D01*
G01*
X124575134Y-67500034D02*
G75*
G03*
X124275134Y-67800000I-34J-299966D01*
G01*
X124900000Y-66300000D02*
G75*
G03*
X125200000Y-66000000I0J300000D01*
G01*
X125871748Y-65152516D02*
G75*
G03*
X125447486Y-65152516I-212131J-212131D01*
G01*
X126022089Y-64330677D02*
G75*
G03*
X126022059Y-64454293I61811J-61823D01*
G01*
X124275100Y-67800000D02*
G75*
G03*
X124575134Y-68100000I300000J0D01*
G01*
X127374294Y-64533733D02*
G75*
G03*
X127374259Y-64109432I-212194J212133D01*
G01*
X124400000Y-71400000D02*
G75*
G03*
X124700000Y-71700000I300000J0D01*
G01*
X125924900Y-68400000D02*
G75*
G03*
X125624866Y-68100000I-300000J0D01*
G01*
X126949968Y-64533724D02*
G75*
G03*
X127374258Y-64533698I212132J212124D01*
G01*
X125487433Y-69912600D02*
G75*
G03*
X125200000Y-70200000I-33J-287400D01*
G01*
X126525732Y-65382233D02*
G75*
G03*
X126525728Y-64957963I-212132J212133D01*
G01*
X125024866Y-72299966D02*
G75*
G03*
X125324866Y-72000000I34J299966D01*
G01*
X124700000Y-72300000D02*
G75*
G03*
X124400000Y-72600000I0J-300000D01*
G01*
X124575134Y-66300034D02*
G75*
G03*
X124275134Y-66600000I-34J-299966D01*
G01*
%TO.N,/DATAEN_CMD*%
X123557306Y-73450000D02*
X123000000Y-73450000D01*
X142400000Y-62400000D02*
X143200000Y-63200000D01*
X122392694Y-74050000D02*
X123000000Y-74050000D01*
X123000000Y-65943399D02*
X123000000Y-65600000D01*
X126040000Y-77240000D02*
X126000000Y-77200000D01*
X126000000Y-77200000D02*
X124200000Y-77200000D01*
X123557306Y-72250000D02*
X123000000Y-72250000D01*
X123300000Y-75250000D02*
X123557306Y-75250000D01*
X123957677Y-76169527D02*
X123957677Y-76169528D01*
X123557306Y-74650000D02*
X123300000Y-74650000D01*
X123351471Y-76351471D02*
X123000000Y-76000000D01*
X123000000Y-73450000D02*
X122392694Y-73450000D01*
X122392694Y-71650000D02*
X122700000Y-71650000D01*
X123300000Y-74650000D02*
X122392694Y-74650000D01*
X123000000Y-71350000D02*
X123000000Y-65943399D01*
X122392694Y-72850000D02*
X123000000Y-72850000D01*
X126200000Y-62400000D02*
X142400000Y-62400000D01*
X123000000Y-72250000D02*
X122392694Y-72250000D01*
X123000000Y-72850000D02*
X123557306Y-72850000D01*
X123957677Y-76169528D02*
X123775734Y-76351470D01*
X124199999Y-76775735D02*
X124200000Y-76775735D01*
X123351470Y-76351470D02*
X123351471Y-76351471D01*
X123000000Y-74050000D02*
X123557306Y-74050000D01*
X124200000Y-76775735D02*
X124381942Y-76593792D01*
X128860000Y-77240000D02*
X126040000Y-77240000D01*
X123000000Y-65600000D02*
X126200000Y-62400000D01*
X123000000Y-76000000D02*
X123000000Y-75550000D01*
X143200000Y-63200000D02*
X143200000Y-63725000D01*
X122392694Y-74049994D02*
G75*
G03*
X122092694Y-74350000I6J-300006D01*
G01*
X123857300Y-73750000D02*
G75*
G03*
X123557306Y-73450000I-300000J0D01*
G01*
X123557306Y-75250006D02*
G75*
G03*
X123857306Y-74950000I-6J300006D01*
G01*
X122700000Y-71650000D02*
G75*
G03*
X123000000Y-71350000I0J300000D01*
G01*
X122092700Y-71950000D02*
G75*
G03*
X122392694Y-72250000I300000J0D01*
G01*
X122392694Y-71649994D02*
G75*
G03*
X122092694Y-71950000I6J-300006D01*
G01*
X124381933Y-76169537D02*
G75*
G03*
X123957677Y-76169527I-212133J-212163D01*
G01*
X124200032Y-76775769D02*
G75*
G03*
X124200000Y-77200000I212068J-212131D01*
G01*
X123857300Y-72550000D02*
G75*
G03*
X123557306Y-72250000I-300000J0D01*
G01*
X123857300Y-74950000D02*
G75*
G03*
X123557306Y-74650000I-300000J0D01*
G01*
X123351471Y-76351469D02*
G75*
G03*
X123775733Y-76351469I212131J212131D01*
G01*
X123557306Y-74050006D02*
G75*
G03*
X123857306Y-73750000I-6J300006D01*
G01*
X124381982Y-76593832D02*
G75*
G03*
X124381942Y-76169528I-212182J212132D01*
G01*
X122092700Y-73150000D02*
G75*
G03*
X122392694Y-73450000I300000J0D01*
G01*
X122392694Y-72849994D02*
G75*
G03*
X122092694Y-73150000I6J-300006D01*
G01*
X123300000Y-75250000D02*
G75*
G03*
X123000000Y-75550000I0J-300000D01*
G01*
X122092700Y-74350000D02*
G75*
G03*
X122392694Y-74650000I300000J0D01*
G01*
X123557306Y-72850006D02*
G75*
G03*
X123857306Y-72550000I-6J300006D01*
G01*
%TO.N,Net-(J6-CC1)*%
X180150000Y-104450000D02*
X178200000Y-106400000D01*
X181355000Y-104450000D02*
X180150000Y-104450000D01*
X178200000Y-106400000D02*
X177862500Y-106400000D01*
%TO.N,Net-(J6-CC2)*%
X177000000Y-99400000D02*
X176662500Y-99400000D01*
X179050000Y-101450000D02*
X177000000Y-99400000D01*
X181355000Y-101450000D02*
X179050000Y-101450000D01*
D42*
%TO.N,/+5V VSYS*%
X132470000Y-110430000D02*
X151820000Y-110430000D01*
X163000000Y-93500000D02*
X160750000Y-95750000D01*
X130160000Y-115340000D02*
X131090000Y-114410000D01*
X160750000Y-97500000D02*
X160750000Y-97000000D01*
X162000000Y-95750000D02*
X163000000Y-95750000D01*
X128860000Y-115340000D02*
X130160000Y-115340000D01*
X151820000Y-110430000D02*
X160750000Y-101500000D01*
X131090000Y-111810000D02*
X132470000Y-110430000D01*
X160750000Y-101500000D02*
X160750000Y-97500000D01*
X131090000Y-114410000D02*
X131090000Y-111810000D01*
X160750000Y-95750000D02*
X160750000Y-97500000D01*
X160750000Y-97000000D02*
X162000000Y-95750000D01*
%TO.N,/+3.3V*%
X131970000Y-107720000D02*
X133500000Y-109250000D01*
X133500000Y-109250000D02*
X149750000Y-109250000D01*
X149750000Y-109250000D02*
X153600000Y-105400000D01*
X128860000Y-107720000D02*
X131970000Y-107720000D01*
X153600000Y-105400000D02*
X153600000Y-96000000D01*
D46*
%TO.N,/D-*%
X180250000Y-102950000D02*
X180000000Y-103200000D01*
X180150000Y-103950000D02*
X180050000Y-103950000D01*
X180350000Y-103950000D02*
X180150000Y-103950000D01*
X178524999Y-103475001D02*
X178999998Y-103950000D01*
X181355000Y-103950000D02*
X180350000Y-103950000D01*
X181355000Y-102950000D02*
X180250000Y-102950000D01*
X135650000Y-120720000D02*
X149439100Y-120720000D01*
X166684099Y-103475001D02*
X178524999Y-103475001D01*
X149439100Y-120720000D02*
X166684099Y-103475001D01*
X178999998Y-103950000D02*
X180050000Y-103950000D01*
X180000000Y-103200000D02*
X180000000Y-103900000D01*
X180000000Y-103900000D02*
X180050000Y-103950000D01*
X134970000Y-120040000D02*
X135650000Y-120720000D01*
%TO.N,/D+*%
X182350000Y-103450000D02*
X182400000Y-103400000D01*
X182400000Y-102600000D02*
X182250000Y-102450000D01*
X181355000Y-103450000D02*
X182350000Y-103450000D01*
X177474999Y-103024999D02*
X178247501Y-103024999D01*
X165479999Y-104019999D02*
X166474999Y-103024999D01*
X149479997Y-120020000D02*
X165555761Y-103944236D01*
X182250000Y-102450000D02*
X181355000Y-102450000D01*
X166474999Y-103024999D02*
X177550000Y-103024999D01*
X178247501Y-103024999D02*
X178822500Y-102450000D01*
X182400000Y-102600000D02*
X182400000Y-103400000D01*
X178822500Y-102450000D02*
X181355000Y-102450000D01*
X140450000Y-120020000D02*
X149479997Y-120020000D01*
D43*
%TO.N,Switch B*%
X154650000Y-104320000D02*
X158750000Y-100220000D01*
X183750000Y-75250000D02*
X185312500Y-75250000D01*
X185312500Y-75250000D02*
X186287500Y-76225000D01*
X180000000Y-68500000D02*
X181500000Y-70000000D01*
X166600000Y-58800000D02*
X179400000Y-58800000D01*
X181500000Y-73000000D02*
X183750000Y-75250000D01*
X163600000Y-69600000D02*
X166000000Y-67200000D01*
X179400000Y-58800000D02*
X180000000Y-59400000D01*
X158750000Y-100220000D02*
X158750000Y-84750000D01*
X166000000Y-59400000D02*
X166600000Y-58800000D01*
X163600000Y-74000000D02*
X163600000Y-69600000D01*
X152420000Y-104320000D02*
X152430000Y-104320000D01*
X180000000Y-59400000D02*
X180000000Y-68500000D01*
X158750000Y-84750000D02*
X161500000Y-82000000D01*
X161500000Y-76100000D02*
X163600000Y-74000000D01*
X181500000Y-70000000D02*
X181500000Y-73000000D01*
X146640000Y-105180000D02*
X151560000Y-105180000D01*
X166000000Y-67200000D02*
X166000000Y-59400000D01*
X161500000Y-82000000D02*
X161500000Y-76100000D01*
X151560000Y-105180000D02*
X152420000Y-104320000D01*
%TO.N,Switch A*%
X157500000Y-84750000D02*
X160750000Y-81500000D01*
X157500000Y-99760000D02*
X157500000Y-84750000D01*
X179500000Y-58250000D02*
X180500000Y-59250000D01*
X165400000Y-66800000D02*
X165400000Y-59200000D01*
X154660000Y-102600000D02*
X157500000Y-99760000D01*
X180500000Y-63000000D02*
X183250000Y-65750000D01*
X166350000Y-58250000D02*
X179500000Y-58250000D01*
X160750000Y-76050000D02*
X162800000Y-74000000D01*
X152420000Y-102640000D02*
X152450000Y-102610000D01*
X185500000Y-65750000D02*
X186250000Y-66500000D01*
X162800000Y-74000000D02*
X162800000Y-69400000D01*
X162800000Y-69400000D02*
X165400000Y-66800000D01*
X160750000Y-81500000D02*
X160750000Y-76050000D01*
X165400000Y-59200000D02*
X166350000Y-58250000D01*
X183250000Y-65750000D02*
X185500000Y-65750000D01*
X146640000Y-102640000D02*
X152420000Y-102640000D01*
X180500000Y-59250000D02*
X180500000Y-63000000D01*
%TO.N,/LED green*%
X124000000Y-87800000D02*
X123062500Y-87800000D01*
X126140000Y-89940000D02*
X124000000Y-87800000D01*
X128860000Y-89940000D02*
X126140000Y-89940000D01*
%TO.N,/HOST_IRQ*%
X132400000Y-63725000D02*
X132400000Y-64400000D01*
X133200000Y-65200000D02*
X133200000Y-84000000D01*
X133200000Y-84000000D02*
X132340000Y-84860000D01*
X132400000Y-64400000D02*
X133200000Y-65200000D01*
X132340000Y-84860000D02*
X128860000Y-84860000D01*
%TO.N,/LED red*%
X126420000Y-95020000D02*
X124000000Y-92600000D01*
X124000000Y-92600000D02*
X123062500Y-92600000D01*
X128860000Y-95020000D02*
X126420000Y-95020000D01*
D44*
%TO.N,/VBUS-C*%
X165500000Y-95750000D02*
X178150000Y-95750000D01*
X183000000Y-101600000D02*
X183000000Y-104800000D01*
X183000000Y-104800000D02*
X182150000Y-105650000D01*
X180200000Y-100200000D02*
X180200000Y-100600000D01*
X182150000Y-105650000D02*
X181355000Y-105650000D01*
X180200000Y-100600000D02*
X180350000Y-100750000D01*
X178800000Y-96400000D02*
X178800000Y-98800000D01*
X178800000Y-98800000D02*
X180200000Y-100200000D01*
X181355000Y-100750000D02*
X182150000Y-100750000D01*
X178150000Y-95750000D02*
X178800000Y-96400000D01*
X180350000Y-100750000D02*
X181355000Y-100750000D01*
X182150000Y-100750000D02*
X183000000Y-101600000D01*
D43*
%TO.N,/TX*%
X133390000Y-112510000D02*
X142780000Y-112510000D01*
X142780000Y-112510000D02*
X143820000Y-113550000D01*
X143820000Y-116930000D02*
X144790000Y-117900000D01*
X137015000Y-129065000D02*
X132730000Y-124780000D01*
X144790000Y-117900000D02*
X146620000Y-117900000D01*
X146620000Y-117900000D02*
X146640000Y-117880000D01*
X143035000Y-129065000D02*
X137015000Y-129065000D01*
X132730000Y-113170000D02*
X133390000Y-112510000D01*
X132730000Y-124780000D02*
X132730000Y-113170000D01*
X143820000Y-113550000D02*
X143820000Y-116930000D01*
%TO.N,/RX*%
X131900000Y-125830000D02*
X131900000Y-112830000D01*
X142750000Y-111450000D02*
X146640000Y-115340000D01*
X143035000Y-131605000D02*
X137675000Y-131605000D01*
X137675000Y-131605000D02*
X131900000Y-125830000D01*
X133280000Y-111450000D02*
X142750000Y-111450000D01*
X131900000Y-112830000D02*
X133280000Y-111450000D01*
%TD*%
%TA.AperFunction,Conductor*%
%TO.N,GND*%
G36*
X176994444Y-62913470D02*
G01*
X177041241Y-62957879D01*
X177050971Y-62973654D01*
X177176344Y-63099027D01*
X177176346Y-63099028D01*
X177176348Y-63099030D01*
X177327262Y-63192115D01*
X177495574Y-63247887D01*
X177599455Y-63258500D01*
X178800544Y-63258499D01*
X178904426Y-63247887D01*
X179072738Y-63192115D01*
X179174353Y-63129437D01*
X179237752Y-63110709D01*
X179301907Y-63126655D01*
X179349158Y-63172887D01*
X179366500Y-63236679D01*
X179366500Y-68416147D01*
X179364204Y-68436935D01*
X179366438Y-68507986D01*
X179366500Y-68511945D01*
X179366500Y-68539857D01*
X179367007Y-68543873D01*
X179367937Y-68555696D01*
X179369326Y-68599892D01*
X179374977Y-68619341D01*
X179378986Y-68638696D01*
X179381525Y-68658794D01*
X179397801Y-68699903D01*
X179401644Y-68711130D01*
X179413980Y-68753590D01*
X179424294Y-68771030D01*
X179432987Y-68788774D01*
X179440448Y-68807617D01*
X179440449Y-68807619D01*
X179466434Y-68843384D01*
X179472931Y-68853271D01*
X179473047Y-68853467D01*
X179490613Y-68918034D01*
X179470237Y-75453745D01*
X179451830Y-75518926D01*
X179402334Y-75565159D01*
X178509145Y-76029267D01*
X178450121Y-76043457D01*
X178391312Y-76028399D01*
X177531009Y-75565159D01*
X174150601Y-73744939D01*
X174102744Y-73699571D01*
X174084358Y-73636242D01*
X174100479Y-73572299D01*
X174146692Y-73525256D01*
X174210338Y-73508000D01*
X174346000Y-73508000D01*
X174346000Y-72454000D01*
X174854000Y-72454000D01*
X174854000Y-73508000D01*
X176150503Y-73508000D01*
X176254328Y-73497393D01*
X176422522Y-73441659D01*
X176573342Y-73348632D01*
X176698632Y-73223342D01*
X176791659Y-73072522D01*
X176847393Y-72904328D01*
X176858000Y-72800503D01*
X176858000Y-72454000D01*
X174854000Y-72454000D01*
X174346000Y-72454000D01*
X174346000Y-70892000D01*
X174854000Y-70892000D01*
X174854000Y-71946000D01*
X176858000Y-71946000D01*
X176858000Y-71599497D01*
X176847393Y-71495671D01*
X176791659Y-71327477D01*
X176698632Y-71176657D01*
X176573342Y-71051367D01*
X176422522Y-70958340D01*
X176254328Y-70902606D01*
X176150503Y-70892000D01*
X174854000Y-70892000D01*
X174346000Y-70892000D01*
X173246000Y-70892000D01*
X173183000Y-70875119D01*
X173136881Y-70829000D01*
X173120000Y-70766000D01*
X173120000Y-66830534D01*
X173133817Y-66773168D01*
X173172236Y-66728383D01*
X173226833Y-66706000D01*
X173285633Y-66710929D01*
X173395676Y-66747393D01*
X173499497Y-66758000D01*
X173546000Y-66758000D01*
X173546000Y-63754000D01*
X174054000Y-63754000D01*
X174054000Y-66758000D01*
X174100503Y-66758000D01*
X174204328Y-66747393D01*
X174372522Y-66691659D01*
X174523342Y-66598632D01*
X174648633Y-66473341D01*
X174692759Y-66401802D01*
X174738593Y-66357924D01*
X174800000Y-66341948D01*
X174861407Y-66357924D01*
X174907241Y-66401802D01*
X174951366Y-66473341D01*
X175076657Y-66598632D01*
X175227477Y-66691659D01*
X175395671Y-66747393D01*
X175499497Y-66758000D01*
X175546000Y-66758000D01*
X175546000Y-63754000D01*
X176054000Y-63754000D01*
X176054000Y-66758000D01*
X176100503Y-66758000D01*
X176204328Y-66747393D01*
X176372522Y-66691659D01*
X176523342Y-66598632D01*
X176648632Y-66473342D01*
X176741659Y-66322522D01*
X176797393Y-66154328D01*
X176808000Y-66050503D01*
X176808000Y-63754000D01*
X176054000Y-63754000D01*
X175546000Y-63754000D01*
X174054000Y-63754000D01*
X173546000Y-63754000D01*
X173546000Y-63372000D01*
X173562881Y-63309000D01*
X173609000Y-63262881D01*
X173672000Y-63246000D01*
X176808000Y-63246000D01*
X176808000Y-63024025D01*
X176824516Y-62961661D01*
X176869735Y-62915646D01*
X176931801Y-62898044D01*
X176994444Y-62913470D01*
G37*
%TD.AperFunction*%
%TD*%
%TA.AperFunction,Conductor*%
%TO.N,/+12V*%
G36*
X168730265Y-62915646D02*
G01*
X168775484Y-62961661D01*
X168792000Y-63024025D01*
X168792000Y-63246000D01*
X171928000Y-63246000D01*
X171991000Y-63262881D01*
X172037119Y-63309000D01*
X172054000Y-63372000D01*
X172054000Y-66758000D01*
X172100503Y-66758000D01*
X172191194Y-66748735D01*
X172259455Y-66760942D01*
X172310919Y-66807417D01*
X172330000Y-66874083D01*
X172330000Y-67272710D01*
X172321965Y-67316984D01*
X172298887Y-67355611D01*
X172273510Y-67384657D01*
X171500000Y-68270000D01*
X171500000Y-68270001D01*
X171500000Y-71073835D01*
X171486267Y-71131038D01*
X171448061Y-71175771D01*
X171393711Y-71198284D01*
X171335064Y-71193668D01*
X171284905Y-71162930D01*
X171173342Y-71051367D01*
X171022522Y-70958340D01*
X170854328Y-70902606D01*
X170750503Y-70892000D01*
X169454000Y-70892000D01*
X169454000Y-73508000D01*
X170750503Y-73508000D01*
X170854328Y-73497393D01*
X171022522Y-73441659D01*
X171173342Y-73348632D01*
X171284905Y-73237070D01*
X171335064Y-73206332D01*
X171393711Y-73201716D01*
X171448061Y-73224229D01*
X171486267Y-73268962D01*
X171500000Y-73326165D01*
X171500000Y-74000000D01*
X181060170Y-78916659D01*
X188915877Y-82956737D01*
X188965808Y-83003155D01*
X188984251Y-83068787D01*
X188984251Y-112907168D01*
X188983981Y-112915408D01*
X188968183Y-113156468D01*
X188966032Y-113172809D01*
X188919710Y-113405690D01*
X188915445Y-113421609D01*
X188839119Y-113646467D01*
X188832811Y-113661694D01*
X188727798Y-113874644D01*
X188719558Y-113888918D01*
X188587639Y-114086354D01*
X188577606Y-114099430D01*
X188421042Y-114277961D01*
X188409388Y-114289614D01*
X188230873Y-114446173D01*
X188217797Y-114456207D01*
X188020369Y-114588128D01*
X188006096Y-114596369D01*
X187793139Y-114701392D01*
X187777913Y-114707699D01*
X187673008Y-114743312D01*
X187632504Y-114750000D01*
X165749998Y-114750000D01*
X157286905Y-123213095D01*
X157246028Y-123240409D01*
X157197810Y-123250000D01*
X150936661Y-123250000D01*
X150873471Y-123233009D01*
X150827323Y-123186619D01*
X150810663Y-123123340D01*
X150811853Y-122896000D01*
X151292000Y-122896000D01*
X153846000Y-122896000D01*
X153846000Y-121642000D01*
X154354000Y-121642000D01*
X154354000Y-122896000D01*
X156908000Y-122896000D01*
X156908000Y-122101411D01*
X156901494Y-122040906D01*
X156850445Y-121904037D01*
X156762904Y-121787095D01*
X156645962Y-121699554D01*
X156509093Y-121648505D01*
X156448589Y-121642000D01*
X154354000Y-121642000D01*
X153846000Y-121642000D01*
X151751411Y-121642000D01*
X151690906Y-121648505D01*
X151554037Y-121699554D01*
X151437095Y-121787095D01*
X151349554Y-121904037D01*
X151298505Y-122040906D01*
X151292000Y-122101411D01*
X151292000Y-122896000D01*
X150811853Y-122896000D01*
X150816014Y-122101411D01*
X150819725Y-121392511D01*
X150829675Y-121344091D01*
X150857488Y-121303225D01*
X162343248Y-110036053D01*
X162383825Y-110009361D01*
X162431483Y-110000000D01*
X183750000Y-110000000D01*
X183750000Y-107947068D01*
X183755426Y-107910492D01*
X183813908Y-107717701D01*
X183833380Y-107520000D01*
X185136619Y-107520000D01*
X185156091Y-107717701D01*
X185213758Y-107907802D01*
X185307406Y-108083007D01*
X185433431Y-108236568D01*
X185586992Y-108362593D01*
X185586996Y-108362595D01*
X185762196Y-108456241D01*
X185857247Y-108485074D01*
X185952298Y-108513908D01*
X186100450Y-108528500D01*
X186100453Y-108528500D01*
X186799547Y-108528500D01*
X186799550Y-108528500D01*
X186947701Y-108513908D01*
X186947700Y-108513908D01*
X187137804Y-108456241D01*
X187313004Y-108362595D01*
X187313005Y-108362593D01*
X187313007Y-108362593D01*
X187466568Y-108236568D01*
X187592593Y-108083007D01*
X187592595Y-108083004D01*
X187686241Y-107907804D01*
X187743908Y-107717701D01*
X187763380Y-107520000D01*
X187743908Y-107322299D01*
X187686241Y-107132196D01*
X187592595Y-106956996D01*
X187592593Y-106956992D01*
X187466568Y-106803431D01*
X187313007Y-106677406D01*
X187137802Y-106583758D01*
X186947701Y-106526091D01*
X186799550Y-106511500D01*
X186799547Y-106511500D01*
X186100453Y-106511500D01*
X186100450Y-106511500D01*
X185952298Y-106526091D01*
X185762197Y-106583758D01*
X185586992Y-106677406D01*
X185433431Y-106803431D01*
X185307406Y-106956992D01*
X185213758Y-107132197D01*
X185156091Y-107322298D01*
X185136619Y-107520000D01*
X183833380Y-107520000D01*
X183813908Y-107322298D01*
X183755426Y-107129508D01*
X183750000Y-107092932D01*
X183750000Y-99307068D01*
X183755426Y-99270492D01*
X183813908Y-99077701D01*
X183833380Y-98880000D01*
X185136619Y-98880000D01*
X185156091Y-99077701D01*
X185213758Y-99267802D01*
X185307406Y-99443007D01*
X185433431Y-99596568D01*
X185586992Y-99722593D01*
X185586996Y-99722595D01*
X185762196Y-99816241D01*
X185838106Y-99839268D01*
X185952298Y-99873908D01*
X186100450Y-99888500D01*
X186100453Y-99888500D01*
X186799547Y-99888500D01*
X186799550Y-99888500D01*
X186947701Y-99873908D01*
X186983475Y-99863056D01*
X187137804Y-99816241D01*
X187313004Y-99722595D01*
X187313005Y-99722593D01*
X187313007Y-99722593D01*
X187466568Y-99596568D01*
X187592593Y-99443007D01*
X187592595Y-99443004D01*
X187686241Y-99267804D01*
X187743908Y-99077701D01*
X187763380Y-98880000D01*
X187758220Y-98827609D01*
X187743908Y-98682298D01*
X187686241Y-98492197D01*
X187686241Y-98492196D01*
X187611813Y-98352951D01*
X187592593Y-98316992D01*
X187466568Y-98163431D01*
X187313007Y-98037406D01*
X187137802Y-97943758D01*
X186947701Y-97886091D01*
X186799550Y-97871500D01*
X186799547Y-97871500D01*
X186100453Y-97871500D01*
X186100450Y-97871500D01*
X185952298Y-97886091D01*
X185762197Y-97943758D01*
X185586992Y-98037406D01*
X185433431Y-98163431D01*
X185307406Y-98316992D01*
X185213758Y-98492197D01*
X185156091Y-98682298D01*
X185136619Y-98880000D01*
X183833380Y-98880000D01*
X183813908Y-98682298D01*
X183755426Y-98489508D01*
X183750000Y-98452932D01*
X183750000Y-90344368D01*
X183755238Y-90308416D01*
X183770517Y-90275453D01*
X183806709Y-90220057D01*
X183866924Y-90127891D01*
X183966814Y-89900165D01*
X184027859Y-89659105D01*
X184048394Y-89411284D01*
X184027859Y-89163463D01*
X183966814Y-88922403D01*
X183866924Y-88694677D01*
X183770516Y-88547113D01*
X183755238Y-88514152D01*
X183754231Y-88507246D01*
X183750000Y-88500001D01*
X183750000Y-88500000D01*
X183749999Y-88499999D01*
X183749138Y-88498525D01*
X183722685Y-88477559D01*
X183562495Y-88303546D01*
X183366260Y-88150810D01*
X183147561Y-88032456D01*
X183147560Y-88032455D01*
X183147557Y-88032454D01*
X183000136Y-87981845D01*
X182912365Y-87951713D01*
X182912362Y-87951712D01*
X182912361Y-87951712D01*
X182743629Y-87923555D01*
X182702457Y-87909014D01*
X174151071Y-83084641D01*
X174115820Y-83055123D01*
X174072912Y-83003155D01*
X174061530Y-82989369D01*
X174061529Y-82989368D01*
X174061528Y-82989367D01*
X174012338Y-82953449D01*
X172888861Y-82304810D01*
X172833159Y-82280168D01*
X172733808Y-82263462D01*
X172701012Y-82257947D01*
X172659997Y-82243433D01*
X172216778Y-81993385D01*
X172181530Y-81963869D01*
X172086990Y-81849367D01*
X172037800Y-81813449D01*
X170914323Y-81164810D01*
X170858621Y-81140168D01*
X170714419Y-81115920D01*
X170569232Y-81133280D01*
X170452372Y-81183323D01*
X170395279Y-81193273D01*
X170339772Y-81176615D01*
X170297592Y-81136873D01*
X170277663Y-81082455D01*
X170262623Y-80956670D01*
X170205121Y-80822387D01*
X170112115Y-80709744D01*
X170062965Y-80673856D01*
X169721242Y-80476561D01*
X169721241Y-80476562D01*
X169022857Y-81686200D01*
X169022856Y-81686204D01*
X168853242Y-81979983D01*
X168807123Y-82026102D01*
X168744123Y-82042983D01*
X168681123Y-82026102D01*
X167610716Y-81408101D01*
X167610715Y-81408102D01*
X167160045Y-82188689D01*
X167158849Y-82187998D01*
X167119042Y-82235597D01*
X167052825Y-82257129D01*
X166985283Y-82240206D01*
X166701955Y-82075923D01*
X166656348Y-82030453D01*
X166639167Y-81968386D01*
X166627537Y-80968161D01*
X167864715Y-80968161D01*
X167864716Y-80968162D01*
X168604301Y-81395162D01*
X168604302Y-81395161D01*
X169281302Y-80222562D01*
X169281301Y-80222561D01*
X168939578Y-80025267D01*
X168883926Y-80000649D01*
X168739872Y-79976424D01*
X168594826Y-79993768D01*
X168460540Y-80051272D01*
X168347895Y-80144278D01*
X168312012Y-80193421D01*
X167864715Y-80968161D01*
X166627537Y-80968161D01*
X166605848Y-79102928D01*
X166624406Y-79035632D01*
X166675946Y-78988542D01*
X166744644Y-78976119D01*
X166811997Y-78983000D01*
X166946000Y-78983000D01*
X166946000Y-78004000D01*
X167454000Y-78004000D01*
X167454000Y-78983000D01*
X167588003Y-78983000D01*
X167691828Y-78972393D01*
X167860022Y-78916659D01*
X168010842Y-78823632D01*
X168136132Y-78698342D01*
X168229159Y-78547522D01*
X168284893Y-78379328D01*
X168295500Y-78275503D01*
X168295500Y-78004000D01*
X167454000Y-78004000D01*
X166946000Y-78004000D01*
X166946000Y-76517000D01*
X167454000Y-76517000D01*
X167454000Y-77496000D01*
X168295500Y-77496000D01*
X168295500Y-77224497D01*
X168284893Y-77120671D01*
X168229159Y-76952477D01*
X168136132Y-76801657D01*
X168010842Y-76676367D01*
X167860022Y-76583340D01*
X167691828Y-76527606D01*
X167588003Y-76517000D01*
X167454000Y-76517000D01*
X166946000Y-76517000D01*
X166811996Y-76517000D01*
X166738805Y-76524477D01*
X166670545Y-76512269D01*
X166619081Y-76465795D01*
X166600000Y-76399129D01*
X166600000Y-72454000D01*
X166942000Y-72454000D01*
X166942000Y-72800503D01*
X166952606Y-72904328D01*
X167008340Y-73072522D01*
X167101367Y-73223342D01*
X167226657Y-73348632D01*
X167377477Y-73441659D01*
X167545671Y-73497393D01*
X167649497Y-73508000D01*
X168946000Y-73508000D01*
X168946000Y-72454000D01*
X166942000Y-72454000D01*
X166600000Y-72454000D01*
X166600000Y-71946000D01*
X166942000Y-71946000D01*
X168946000Y-71946000D01*
X168946000Y-70892000D01*
X167649497Y-70892000D01*
X167545671Y-70902606D01*
X167377477Y-70958340D01*
X167226657Y-71051367D01*
X167101367Y-71176657D01*
X167008340Y-71327477D01*
X166952606Y-71495671D01*
X166942000Y-71599497D01*
X166942000Y-71946000D01*
X166600000Y-71946000D01*
X166600000Y-67434698D01*
X166610363Y-67384657D01*
X166613181Y-67378145D01*
X166616750Y-67355611D01*
X166620096Y-67334477D01*
X166622504Y-67322853D01*
X166633500Y-67280029D01*
X166633500Y-67259776D01*
X166635051Y-67240066D01*
X166638220Y-67220057D01*
X166637524Y-67212697D01*
X166634058Y-67176038D01*
X166633500Y-67164181D01*
X166633500Y-63754000D01*
X168792000Y-63754000D01*
X168792000Y-66050503D01*
X168802606Y-66154328D01*
X168858340Y-66322522D01*
X168951367Y-66473342D01*
X169076657Y-66598632D01*
X169227477Y-66691659D01*
X169395671Y-66747393D01*
X169499497Y-66758000D01*
X169546000Y-66758000D01*
X169546000Y-63754000D01*
X170054000Y-63754000D01*
X170054000Y-66758000D01*
X170100503Y-66758000D01*
X170204328Y-66747393D01*
X170372522Y-66691659D01*
X170523342Y-66598632D01*
X170648633Y-66473341D01*
X170692759Y-66401802D01*
X170738593Y-66357924D01*
X170800000Y-66341948D01*
X170861407Y-66357924D01*
X170907241Y-66401802D01*
X170951366Y-66473341D01*
X171076657Y-66598632D01*
X171227477Y-66691659D01*
X171395671Y-66747393D01*
X171499497Y-66758000D01*
X171546000Y-66758000D01*
X171546000Y-63754000D01*
X170054000Y-63754000D01*
X169546000Y-63754000D01*
X168792000Y-63754000D01*
X166633500Y-63754000D01*
X166633500Y-63381074D01*
X166652581Y-63314408D01*
X166704046Y-63267933D01*
X166772304Y-63255726D01*
X166799455Y-63258500D01*
X168000544Y-63258499D01*
X168104426Y-63247887D01*
X168272738Y-63192115D01*
X168423652Y-63099030D01*
X168549030Y-62973652D01*
X168558758Y-62957879D01*
X168605556Y-62913470D01*
X168668199Y-62898044D01*
X168730265Y-62915646D01*
G37*
%TD.AperFunction*%
%TD*%
M02*
