M48
; DRILL file {KiCad 7.0.1} date Tue Jun 27 14:48:21 2023
; FORMAT={-:-/ absolute / metric / decimal}
; #@! TF.CreationDate,2023-06-27T14:48:21+02:00
; #@! TF.GenerationSoftware,Kicad,Pcbnew,7.0.1
; #@! TF.FileFunction,MixedPlating,1,2
FMAT,2
METRIC
; #@! TA.AperFunction,Plated,PTH,ViaDrill
T1C0.400
; #@! TA.AperFunction,Plated,PTH,ComponentDrill
T2C0.600
; #@! TA.AperFunction,Plated,PTH,ComponentDrill
T3C0.990
; #@! TA.AperFunction,Plated,PTH,ComponentDrill
T4C1.000
; #@! TA.AperFunction,Plated,PTH,ComponentDrill
T5C1.020
; #@! TA.AperFunction,Plated,PTH,ComponentDrill
T6C1.300
; #@! TA.AperFunction,NonPlated,NPTH,ComponentDrill
T7C0.650
%
G90
G05
T1
X118.0Y-90.0
X126.4Y-60.6
X129.5Y-65.0
X131.5Y-65.0
X134.0Y-58.8
X134.97Y-120.04
X135.2Y-65.2
X140.45Y-120.02
X142.2Y-65.0
X152.43Y-104.32
X152.45Y-102.61
X154.65Y-104.32
X154.66Y-102.6
X160.3Y-67.82
X161.7Y-67.8
X165.13Y-76.06
X169.4Y-100.4
X173.522Y-85.819
X175.6Y-108.2
X178.24Y-66.32
X178.25Y-69.25
X178.25Y-72.0
X178.25Y-74.75
X181.17Y-95.98
T3
X186.25Y-62.0
X186.25Y-66.5
X186.287Y-71.725
X186.287Y-76.225
T4
X143.035Y-129.065
X143.035Y-131.605
T5
X128.86Y-69.62
X128.86Y-72.16
X128.86Y-74.7
X128.86Y-77.24
X128.86Y-79.78
X128.86Y-82.32
X128.86Y-84.86
X128.86Y-87.4
X128.86Y-89.94
X128.86Y-92.48
X128.86Y-95.02
X128.86Y-97.56
X128.86Y-100.1
X128.86Y-102.64
X128.86Y-105.18
X128.86Y-107.72
X128.86Y-110.26
X128.86Y-112.8
X128.86Y-115.34
X128.86Y-117.88
X146.64Y-69.62
X146.64Y-72.16
X146.64Y-74.7
X146.64Y-77.24
X146.64Y-79.78
X146.64Y-82.32
X146.64Y-84.86
X146.64Y-87.4
X146.64Y-89.94
X146.64Y-92.48
X146.64Y-95.02
X146.64Y-97.56
X146.64Y-100.1
X146.64Y-102.64
X146.64Y-105.18
X146.64Y-107.72
X146.64Y-112.8
X146.64Y-115.34
X146.64Y-117.88
T6
X183.76Y-60.75
X183.76Y-67.76
X183.797Y-70.475
X183.797Y-77.485
T7
X182.8Y-100.31
X182.8Y-106.09
T2
X181.72Y-98.88G85X182.82Y-98.88
G05
X181.72Y-107.52G85X182.82Y-107.52
G05
X186.15Y-98.88G85X186.75Y-98.88
G05
X186.15Y-107.52G85X186.75Y-107.52
G05
T4
X152.8Y-123.15G85X155.4Y-123.15
G05
X153.0Y-129.45G85X155.2Y-129.45
G05
X158.9Y-124.95G85X158.9Y-127.15
G05
T0
M30
